# 3ds Max Wavefront OBJ Exporter v0.97b - (c)2007 guruware
# File Created: 17.05.2017 10:10:24

mtllib cailloutest2.mtl

#
# object Box005
#

v  -288.3734 114.5493 575.2285
v  -271.0918 135.4543 603.1308
v  -244.5403 115.1048 542.6256
v  -271.5662 112.8220 537.3568
v  -299.4687 110.4746 616.7987
v  -279.3965 125.7306 658.7969
v  -281.3174 93.5239 733.8420
v  -261.7986 86.9853 767.7902
v  -198.0541 94.0107 763.1552
v  -249.6822 110.7919 702.2443
v  -310.4286 84.9905 723.2909
v  -281.7465 110.2424 675.0599
v  -297.7787 81.0918 743.9105
v  -210.3796 114.7718 671.4142
v  -164.0230 112.5248 720.2557
v  -181.1087 107.1099 623.7558
v  -153.6756 101.0850 687.2281
v  -222.3908 139.6615 661.8517
v  -193.4437 124.0966 612.7908
v  -249.3409 126.4962 694.1902
v  -156.4567 72.8795 585.5956
v  -124.9366 54.1797 645.7812
v  -165.7288 47.2173 586.4124
v  -191.8177 49.9820 542.5602
v  -169.3072 88.2329 584.6823
v  -192.5920 90.2192 558.3611
v  -235.8749 101.3536 548.6123
v  -160.0059 85.9367 619.8894
v  -146.8548 84.9926 689.4636
v  -121.0202 78.7689 712.5413
v  -124.1418 46.6343 754.7620
v  -132.2600 73.6645 756.6913
v  -145.7132 47.0917 792.1808
v  -156.5646 85.5070 727.6262
v  -189.5526 53.2966 784.1379
v  -316.1164 79.1846 685.5839
v  -287.1509 85.5849 623.5500
v  -190.1520 56.1083 782.5977
v  -252.5701 51.1383 785.4154
v  -251.9090 48.4791 786.8101
v  -157.0550 87.3729 727.0790
v  -147.3115 86.1040 689.2987
v  -160.2609 87.3990 620.2053
v  -156.7682 73.9398 585.9123
v  -191.8746 52.7608 543.6508
v  -233.7970 49.2348 532.7355
v  -233.8708 52.8342 533.8310
v  -267.5558 67.4009 526.4652
v  -267.8755 68.8188 527.3896
v  -292.5918 72.8608 568.5295
v  -292.9041 74.0352 569.2972
v  -316.4857 69.9026 623.4791
v  -316.5404 71.6844 624.1319
v  -322.2737 65.9417 690.7146
v  -321.8564 66.8563 690.3530
v  -317.6582 65.4478 734.5742
v  -317.1831 66.7975 733.7615
v  -295.6316 50.7792 761.4761
v  -295.7732 52.8725 760.2026
v  -283.0628 112.8792 673.9838
v  -286.2567 88.2217 622.8369
v  -250.5278 112.4556 701.1356
v  -211.5697 117.4087 670.3900
v  -182.3618 108.9095 622.5986
v  -236.8031 102.8104 547.9777
v  -272.1735 87.9322 539.8671
v  -272.1659 90.5691 541.4034
v  -297.5039 89.8661 579.6893
v  -296.6226 92.4811 580.9287
v  -250.9090 14.5874 801.4427
v  -188.6954 8.2369 806.8787
v  -293.7884 24.8552 771.4946
v  -145.2653 11.4505 814.0437
v  -123.3559 19.3789 768.0601
v  -270.5894 48.3848 527.2659
v  -309.9353 45.6502 560.2460
v  -355.2388 41.8051 620.2910
v  -324.6267 33.2697 742.1635
v  -125.6442 40.4142 650.2072
v  -347.9965 37.6783 696.5263
v  -313.7207 -18.7504 579.9078
v  -292.5823 -10.8949 551.3091
v  -253.7170 -10.4623 565.9716
v  -305.1478 -39.9430 589.2338
v  -324.5938 -50.4960 626.0924
v  -333.3932 -30.1358 596.6764
v  -293.6826 -33.7190 698.9111
v  -263.4445 -38.8893 693.5538
v  -205.4561 -27.4586 739.1686
v  -267.3342 -22.1160 741.8682
v  -325.5861 -13.7735 694.9417
v  -302.4319 -29.1975 648.5443
v  -304.5124 -13.0828 718.9427
v  -231.4731 -33.1722 660.6021
v  -180.7366 -41.3030 694.9024
v  -200.0775 -17.4184 616.9497
v  -173.9847 -24.2554 663.1492
v  -251.4949 -54.4708 644.0624
v  -213.6421 -31.2906 609.8723
v  -280.2943 -52.1068 680.0455
v  -190.2966 34.2392 550.0464
v  -156.6142 14.7477 605.8153
v  -243.7186 0.3695 557.5096
v  -198.8831 9.9518 551.0531
v  -167.5604 0.4929 600.6631
v  -133.8954 -7.3581 692.4532
v  -164.0743 -9.3062 666.6127
v  -191.7768 2.3052 610.6588
v  -127.3419 3.3555 745.5139
v  -137.9256 -12.7649 742.4600
v  -146.6440 -9.1549 783.6736
v  -168.7431 -15.0768 705.9748
v  -191.6817 -12.3791 769.6430
v  -353.1396 -1.3302 659.7635
v  -341.1411 -8.8373 606.3621
v  -253.3856 -5.4334 773.5561
v  -234.9457 24.4406 539.7974
v  -289.7498 12.0753 537.7366
v  -275.3411 31.1957 526.9747
v  -328.6544 4.1581 567.3633
v  -322.7268 19.9652 560.6938
v  -356.2094 15.2339 605.7529
v  -367.7418 10.9414 672.7411
v  -330.5684 4.4185 718.8778
v  -297.2137 8.1544 751.3566
# 125 vertices

vn -0.8448 0.3765 -0.2834
vn -0.4014 0.8211 -0.1322
vn 0.3079 0.4012 -0.7807
vn -0.3617 0.4006 -0.7593
vn -0.9923 0.1095 -0.0214
vn -0.7050 0.6368 0.3884
vn -0.4468 0.7638 0.5806
vn -0.2935 0.5840 0.8826
vn 0.2264 0.6024 0.8943
vn -0.1368 0.7401 0.7970
vn -0.8013 0.5051 0.3989
vn -0.8849 0.2670 0.4408
vn -0.6323 0.4352 0.7385
vn 0.4839 0.7538 0.5547
vn 0.4854 0.7736 0.5085
vn 0.7986 0.5175 -0.1483
vn 0.9113 0.3820 -0.0104
vn 0.3500 0.8594 0.4561
vn 0.7667 0.5387 -0.1892
vn -0.0828 0.6004 0.9256
vn 0.8473 0.0929 -0.5124
vn 0.9529 0.0234 -0.3036
vn 0.8400 -0.1430 -0.5652
vn 0.5309 -0.0894 -0.8808
vn 0.7681 0.4326 -0.3635
vn 0.5237 0.3684 -0.6921
vn 0.4645 0.1154 -0.8701
vn 0.9744 0.1868 -0.0706
vn 0.8014 0.5613 0.0189
vn 0.8359 0.5232 0.1296
vn 0.9657 0.0867 0.2681
vn 0.5294 0.6058 0.7120
vn 0.4132 0.3877 0.9206
vn 0.6529 0.5732 0.6011
vn 0.0393 0.4161 1.0129
vn -0.9182 0.3669 -0.0132
vn -0.8613 0.4845 0.1134
vn 0.3651 0.3402 0.9558
vn -0.2480 0.2809 1.0067
vn -0.2414 0.2857 1.0079
vn 0.8571 0.2340 0.5158
vn 0.9757 0.2089 0.0582
vn 0.9302 0.2912 -0.1419
vn 0.8939 0.1978 -0.3612
vn 0.4667 0.1119 -0.8702
vn 0.2370 -0.0843 -1.0076
vn 0.2823 0.0880 -0.9556
vn -0.1966 0.1678 -0.9474
vn -0.3460 0.1263 -0.9203
vn -0.8649 0.1420 -0.4574
vn -0.8844 -0.0006 -0.4769
vn -0.9200 0.2668 -0.2197
vn -0.9319 0.2971 -0.1220
vn -0.9269 0.3563 0.1160
vn -0.9718 0.2248 0.0532
vn -0.7953 0.3286 0.5841
vn -0.8632 0.2783 0.4841
vn -0.5714 0.2426 0.8523
vn -0.5726 0.2612 0.8488
vn -0.8525 0.1485 0.5436
vn -0.9915 0.0704 0.1253
vn -0.1127 0.3334 1.0260
vn 0.7434 0.3373 0.6567
vn 0.9423 0.2825 -0.0949
vn 0.5522 -0.0615 -0.8632
vn -0.4895 0.1668 -0.8350
vn -0.4637 0.0696 -0.8864
vn -0.9432 0.1814 -0.2371
vn -0.9803 0.1647 -0.0609
vn -0.3419 -0.0976 0.9322
vn -0.1158 -0.1803 0.9553
vn -0.6468 -0.0389 0.7693
vn 0.4247 -0.0713 0.9056
vn 0.9662 -0.0571 0.2432
vn -0.2674 -0.0486 -0.9942
vn -0.7474 0.2036 -0.5966
vn -0.8996 0.3265 -0.2027
vn -0.7865 0.0368 0.6381
vn 0.9549 -0.1180 -0.3026
vn -0.9189 0.2419 0.3635
vn -0.3213 -0.4670 -0.9341
vn -0.2186 -0.6079 -0.8929
vn 0.3397 -0.5896 -0.8580
vn -0.2336 -0.6578 -0.8495
vn -0.6086 -0.7485 -0.0517
vn -0.6811 -0.4914 -0.6431
vn -0.5577 -0.7854 -0.2832
vn -0.0327 -0.7829 0.4044
vn 0.0260 -0.7520 0.4568
vn -0.3480 -0.5857 0.5905
vn -0.7100 -0.5602 0.2693
vn -0.8057 -0.3045 0.4405
vn -0.6165 -0.4022 0.5879
vn 0.4873 -0.8191 -0.0258
vn 0.4324 -0.8484 -0.0434
vn 0.7242 -0.5380 -0.5273
vn 0.8363 -0.4261 -0.4213
vn 0.3712 -0.8853 -0.1881
vn 0.6920 -0.5921 -0.5107
vn -0.2955 -0.6155 0.5798
vn 0.5930 -0.2059 -0.8393
vn 0.8340 -0.3521 -0.4988
vn 0.2833 -0.5232 -0.9225
vn 0.3440 -0.3933 -0.9512
vn 0.8216 -0.5166 0.0640
vn 0.7578 -0.5982 -0.3193
vn 0.6957 -0.6074 -0.4771
vn 0.8172 -0.4577 0.2220
vn 0.9665 -0.2199 0.0650
vn 0.6044 -0.7439 -0.0038
vn 0.4569 -0.6546 0.4292
vn 0.6880 -0.6851 -0.0514
vn 0.0438 -0.7195 0.5055
vn -0.8216 -0.5410 -0.0659
vn -0.9467 -0.2808 -0.1973
vn -0.3488 -0.4977 0.6822
vn 0.2783 -0.3485 -0.9867
vn -0.2546 -0.2878 -1.0041
vn -0.2013 -0.1533 -1.0220
vn -0.7928 -0.1473 -0.6358
vn -0.7200 -0.0084 -0.7109
vn -0.9102 -0.1156 -0.4308
vn -0.9628 -0.1489 0.1916
vn -0.7272 -0.2518 0.5901
vn -0.6355 -0.3029 0.6502
# 125 vertex normals

vt 0.4491 0.2828 -0.1654
vt 0.3980 0.2534 -0.2119
vt 0.4818 0.2433 -0.1411
vt 0.4861 0.2628 -0.1363
vt 0.4034 0.3071 -0.1505
vt 0.3385 0.2831 -0.1837
vt 0.2720 0.3774 -0.0598
vt 0.2260 0.3908 -0.0613
vt 0.1832 0.3249 -0.2133
vt 0.2935 0.2986 -0.1958
vt 0.2951 0.4136 0.0106
vt 0.3369 0.3187 -0.1480
vt 0.2707 0.4200 0.0086
vt 0.3045 0.2212 -0.3216
vt 0.2226 0.2389 -0.3266
vt 0.3716 0.1611 -0.3377
vt 0.2362 0.1910 -0.3849
vt 0.3192 0.2331 -0.2787
vt 0.3745 0.1794 -0.2861
vt 0.2892 0.2777 -0.2146
vt 0.5547 0.1625 0.0677
vt 0.6815 0.1522 0.2147
vt 0.6229 0.2178 0.0688
vt 0.5703 0.2447 0.0238
vt 0.4732 0.1497 -0.0216
vt 0.4855 0.1909 -0.0638
vt 0.4712 0.2470 -0.1278
vt 0.5014 0.1110 0.2612
vt 0.5092 0.0101 -0.4090
vt 0.6445 0.0005 -0.3764
vt 0.8285 0.1029 -0.3209
vt 0.0854 0.3217 -0.3183
vt 0.0526 0.4108 -0.2312
vt 0.0211 0.3527 -0.3174
vt 0.0816 0.2564 -0.3764
vt 0.1380 0.2841 -0.3441
vt 0.1345 0.2222 -0.4090
vt 0.1143 0.4242 -0.1576
vt 0.3427 0.4192 0.0142
vt 0.4129 0.3585 -0.1350
vt 0.1162 0.4116 -0.1620
vt 0.1803 0.4756 0.0030
vt 0.1800 0.4832 0.0076
vt 0.1516 0.2734 -0.3436
vt 0.1546 0.2149 -0.4078
vt 0.4620 0.1142 0.2885
vt 0.4261 0.0220 -0.4078
vt 0.5329 0.1477 0.0660
vt 0.5742 0.2369 0.0198
vt 0.5565 0.2903 -0.0169
vt 0.5613 0.2783 -0.0232
vt 0.5106 0.3046 -0.0607
vt 0.5231 0.3088 -0.0637
vt 0.4685 0.3556 -0.0897
vt 0.4796 0.3599 -0.0923
vt 0.4235 0.4128 -0.0203
vt 0.4236 0.4126 -0.0249
vt 0.3428 0.4525 0.0742
vt 0.3427 0.4491 0.0700
vt 0.2897 0.4648 0.0827
vt 0.2892 0.4622 0.0777
vt 0.2474 0.4978 0.0906
vt 0.2474 0.4934 0.0851
vt 0.3320 0.3121 -0.1496
vt 0.4117 0.3563 -0.1433
vt 0.2833 0.2968 -0.1964
vt 0.2922 0.2153 -0.3164
vt 0.3701 0.1621 -0.3308
vt 0.4874 0.2435 -0.1297
vt 0.5010 0.3012 -0.1065
vt 0.5109 0.2984 -0.1121
vt 0.4546 0.3307 -0.1223
vt 0.4561 0.3283 -0.1285
vt 0.1521 0.5763 0.0721
vt 0.0562 0.5473 -0.0729
vt 0.2318 0.5669 0.1525
vt 0.9010 0.0945 -0.2364
vt 0.9995 0.2156 -0.1705
vt 0.9295 0.2384 0.3434
vt 0.0005 0.5036 -0.1667
vt 0.5393 0.3385 -0.0308
vt 0.5190 0.4035 -0.0146
vt 0.4614 0.4917 0.1094
vt 0.2961 0.5549 0.1929
vt 0.7176 0.2060 0.1988
vt 0.3685 0.5412 0.2034
vt 0.5697 0.6924 -0.0965
vt 0.5597 0.6386 -0.1529
vt 0.6076 0.5916 -0.1533
vt 0.6190 0.6988 -0.0633
vt 0.6533 0.7307 0.0267
vt 0.5965 0.7265 -0.0396
vt 0.7318 0.8053 0.1857
vt 0.7597 0.7638 0.1285
vt 0.8746 0.7690 0.1586
vt 0.8042 0.8378 0.3066
vt 0.6783 0.8580 0.1854
vt 0.6672 0.7781 0.0462
vt 0.7334 0.8680 0.3000
vt 0.7693 0.6861 0.0030
vt 0.8438 0.6952 0.0286
vt 0.7420 0.5861 -0.0987
vt 0.8262 0.6286 -0.0324
vt 0.7250 0.7006 -0.0011
vt 0.7172 0.6126 -0.0915
vt 0.7380 0.7496 0.1067
vt 0.5868 0.2618 0.0421
vt 0.6580 0.2939 0.1121
vt 0.5991 0.5685 -0.1741
vt 0.6252 0.5057 -0.1656
vt 0.7232 0.5081 -0.1140
vt 0.7757 0.3438 0.2205
vt 0.7245 0.3709 0.1832
vt 0.6336 0.3557 0.0973
vt 0.8540 0.3142 0.3000
vt 0.8369 0.3674 0.2932
vt 0.8909 0.3799 0.3637
vt 0.7750 0.3994 0.2534
vt 0.8584 0.4474 0.4090
vt 0.5965 0.8515 0.0679
vt 0.5627 0.7631 -0.0424
vt 0.8621 0.8728 -0.1162
vt 0.9330 0.7857 0.2074
vt 0.8975 0.6683 0.0414
vt 0.8524 0.5986 -0.0334
vt 0.7627 0.5282 -0.1251
vt 0.7209 0.4636 -0.1093
vt 0.5926 0.4465 -0.1840
vt 0.5430 0.5181 -0.2103
vt 0.5108 0.6089 -0.1980
vt 0.4702 0.5741 -0.2329
vt 0.5115 0.6972 -0.1376
vt 0.4770 0.6883 -0.1787
vt 0.5083 0.7956 -0.0735
vt 0.5848 0.8931 0.0601
vt 0.6903 0.9151 0.1293
vt 0.7786 0.9313 -0.0002
vt 0.9900 0.8513 -0.3066
vt 0.9142 0.9241 -0.1519
vt 0.2562 0.6194 0.2143
vt 0.1773 0.6483 0.1056
vt 0.9558 0.3718 -0.1667
vt 0.9334 0.4592 -0.0729
vt 0.5692 0.3644 -0.0038
vt 0.5931 0.3149 0.0173
vt 0.5710 0.4513 0.0470
vt 0.5243 0.5289 0.1457
vt 0.3373 0.6310 0.3358
vt 0.4350 0.5974 0.2709
vt 0.3371 0.0694 -0.3849
# 150 texture coords

o Box005
g Box005
usemtl wire_138008110
s 1
f 1/1/1 2/2/2 3/3/3 
f 3/3/3 4/4/4 1/1/1 
f 1/1/1 5/5/5 6/6/6 
f 6/6/6 2/2/2 1/1/1 
f 7/7/7 8/8/8 9/9/9 
f 9/9/9 10/10/10 7/7/7 
f 11/11/11 7/7/7 10/10/10 
f 10/10/10 12/12/12 11/11/11 
f 7/7/7 11/11/11 13/13/13 
f 13/13/13 8/8/8 7/7/7 
f 14/14/14 10/10/10 9/9/9 
f 9/9/9 15/15/15 14/14/14 
f 16/16/16 14/14/14 15/15/15 
f 15/15/15 17/17/17 16/16/16 
f 18/18/18 19/19/19 3/3/3 
f 3/3/3 2/2/2 18/18/18 
f 20/20/20 18/18/18 2/2/2 
f 2/2/2 6/6/6 20/20/20 
f 21/21/21 22/22/22 23/23/23 
f 23/23/23 24/24/24 21/21/21 
f 16/16/16 25/25/25 26/26/26 
f 26/26/26 27/27/27 16/16/16 
f 21/21/21 28/28/28 29/29/29 
f 29/29/29 30/30/30 21/21/21 
f 22/22/22 21/21/21 30/30/30 
f 30/30/30 31/31/31 22/22/22 
f 32/32/32 33/33/33 31/34/31 
f 31/34/31 30/35/30 32/32/32 
f 34/36/34 32/32/32 30/35/30 
f 30/35/30 29/37/29 34/36/34 
f 32/32/32 34/36/34 35/38/35 
f 35/38/35 33/33/33 32/32/32 
f 36/39/36 11/11/11 12/12/12 
f 12/12/12 37/40/37 36/39/36 
f 35/38/35 38/41/38 39/42/39 
f 39/42/39 40/43/40 35/38/35 
f 34/36/34 41/44/41 38/41/38 
f 38/41/38 35/38/35 34/36/34 
f 29/37/29 42/45/42 41/44/41 
f 41/44/41 34/36/34 29/37/29 
f 28/28/28 43/46/43 42/47/42 
f 42/47/42 29/29/29 28/28/28 
f 28/28/28 21/21/21 44/48/44 
f 44/48/44 43/46/43 28/28/28 
f 21/21/21 24/24/24 45/49/45 
f 45/49/45 44/48/44 21/21/21 
f 46/50/46 47/51/47 45/49/45 
f 45/49/45 24/24/24 46/50/46 
f 48/52/48 49/53/49 47/51/47 
f 47/51/47 46/50/46 48/52/48 
f 50/54/50 51/55/51 49/53/49 
f 49/53/49 48/52/48 50/54/50 
f 52/56/52 53/57/53 51/55/51 
f 51/55/51 50/54/50 52/56/52 
f 52/56/52 54/58/54 55/59/55 
f 55/59/55 53/57/53 52/56/52 
f 54/58/54 56/60/56 57/61/57 
f 57/61/57 55/59/55 54/58/54 
f 56/60/56 58/62/58 59/63/59 
f 59/63/59 57/61/57 56/60/56 
f 58/62/58 40/43/40 39/42/39 
f 39/42/39 59/63/59 58/62/58 
f 12/12/12 60/64/60 61/65/61 
f 61/65/61 37/40/37 12/12/12 
f 12/12/12 10/10/10 62/66/62 
f 62/66/62 60/64/60 12/12/12 
f 14/14/14 63/67/63 62/66/62 
f 62/66/62 10/10/10 14/14/14 
f 14/14/14 16/16/16 64/68/64 
f 64/68/64 63/67/63 14/14/14 
f 27/27/27 65/69/65 64/68/64 
f 64/68/64 16/16/16 27/27/27 
f 27/27/27 66/70/66 67/71/67 
f 67/71/67 65/69/65 27/27/27 
f 68/72/68 69/73/69 67/71/67 
f 67/71/67 66/70/66 68/72/68 
f 37/40/37 61/65/61 69/73/69 
f 69/73/69 68/72/68 37/40/37 
f 40/43/40 70/74/70 71/75/71 
f 71/75/71 35/38/35 40/43/40 
f 58/62/58 72/76/72 70/74/70 
f 70/74/70 40/43/40 58/62/58 
f 31/31/31 33/77/33 73/78/73 
f 73/78/73 74/79/74 31/31/31 
f 33/33/33 35/38/35 71/75/71 
f 71/75/71 73/80/73 33/33/33 
f 48/52/48 46/50/46 75/81/75 
f 48/52/48 75/81/75 76/82/76 
f 76/82/76 50/54/50 48/52/48 
f 52/56/52 50/54/50 76/82/76 
f 76/82/76 77/83/77 52/56/52 
f 58/62/58 56/60/56 78/84/78 
f 78/84/78 72/76/72 58/62/58 
f 23/23/23 22/22/22 79/85/79 
f 31/31/31 74/79/74 79/85/79 
f 79/85/79 22/22/22 31/31/31 
f 54/58/54 52/56/52 77/83/77 
f 77/83/77 80/86/80 54/58/54 
f 56/60/56 54/58/54 80/86/80 
f 80/86/80 78/84/78 56/60/56 
f 81/87/81 82/88/82 83/89/83 
f 83/89/83 84/90/84 81/87/81 
f 81/87/81 84/90/84 85/91/85 
f 85/91/85 86/92/86 81/87/81 
f 87/93/87 88/94/88 89/95/89 
f 89/95/89 90/96/90 87/93/87 
f 91/97/91 92/98/92 88/94/88 
f 88/94/88 87/93/87 91/97/91 
f 87/93/87 90/96/90 93/99/93 
f 93/99/93 91/97/91 87/93/87 
f 94/100/94 95/101/95 89/95/89 
f 89/95/89 88/94/88 94/100/94 
f 96/102/96 97/103/97 95/101/95 
f 95/101/95 94/100/94 96/102/96 
f 98/104/98 84/90/84 83/89/83 
f 83/89/83 99/105/99 98/104/98 
f 100/106/100 85/91/85 84/90/84 
f 84/90/84 98/104/98 100/106/100 
f 101/107/101 23/23/23 79/85/79 
f 79/85/79 102/108/102 101/107/101 
f 96/102/96 103/109/103 104/110/104 
f 104/110/104 105/111/105 96/102/96 
f 102/108/102 106/112/106 107/113/107 
f 107/113/107 108/114/108 102/108/102 
f 79/85/79 109/115/109 106/112/106 
f 106/112/106 102/108/102 79/85/79 
f 110/116/110 106/112/106 109/115/109 
f 109/115/109 111/117/111 110/116/110 
f 112/118/112 107/113/107 106/112/106 
f 106/112/106 110/116/110 112/118/112 
f 110/116/110 111/117/111 113/119/113 
f 113/119/113 112/118/112 110/116/110 
f 114/120/114 115/121/115 92/98/92 
f 92/98/92 91/97/91 114/120/114 
f 116/122/116 90/96/90 89/95/89 
f 89/95/89 113/123/113 116/122/116 
f 113/123/113 89/95/89 95/101/95 
f 95/101/95 112/124/112 113/123/113 
f 112/124/112 95/101/95 97/103/97 
f 97/103/97 107/125/107 112/124/112 
f 107/125/107 97/103/97 96/102/96 
f 96/102/96 108/126/108 107/125/107 
f 108/126/108 96/102/96 105/111/105 
f 105/111/105 102/127/102 108/126/108 
f 102/127/102 105/111/105 104/110/104 
f 104/110/104 101/128/101 102/127/102 
f 101/128/101 104/110/104 103/109/103 
f 103/109/103 117/129/117 101/128/101 
f 117/129/117 103/109/103 118/130/118 
f 118/130/118 119/131/119 117/129/117 
f 119/131/119 118/130/118 120/132/120 
f 120/132/120 121/133/121 119/131/119 
f 121/133/121 120/132/120 115/121/115 
f 115/121/115 122/134/122 121/133/121 
f 122/134/122 115/121/115 114/120/114 
f 114/120/114 123/135/123 122/134/122 
f 123/135/123 114/120/114 91/97/91 
f 91/97/91 124/136/124 123/135/123 
f 124/136/124 91/97/91 93/99/93 
f 93/99/93 125/137/125 124/136/124 
f 125/137/125 93/99/93 90/96/90 
f 90/96/90 116/122/116 125/137/125 
f 115/121/115 86/92/86 85/91/85 
f 85/91/85 92/98/92 115/121/115 
f 92/98/92 85/91/85 100/106/100 
f 100/106/100 88/94/88 92/98/92 
f 88/94/88 100/106/100 98/104/98 
f 98/104/98 94/100/94 88/94/88 
f 94/100/94 98/104/98 99/105/99 
f 99/105/99 96/102/96 94/100/94 
f 96/102/96 99/105/99 83/89/83 
f 83/89/83 103/109/103 96/102/96 
f 103/109/103 83/89/83 82/88/82 
f 82/88/82 118/130/118 103/109/103 
f 118/130/118 82/88/82 81/87/81 
f 81/87/81 120/132/120 118/130/118 
f 120/132/120 81/87/81 86/92/86 
f 86/92/86 115/121/115 120/132/120 
f 116/122/116 113/123/113 71/138/71 
f 71/138/71 70/139/70 116/122/116 
f 125/140/125 116/141/116 70/74/70 
f 70/74/70 72/76/72 125/140/125 
f 109/115/109 74/79/74 73/142/73 
f 73/142/73 111/117/111 109/115/109 
f 111/117/111 73/142/73 71/143/71 
f 71/143/71 113/119/113 111/117/111 
f 119/144/119 75/81/75 46/50/46 
f 46/50/46 117/145/117 119/144/119 
f 119/144/119 121/146/121 76/82/76 
f 76/82/76 75/81/75 119/144/119 
f 122/147/122 77/83/77 76/82/76 
f 76/82/76 121/146/121 122/147/122 
f 101/107/101 117/145/117 46/50/46 
f 46/50/46 24/24/24 101/107/101 
f 101/107/101 24/24/24 23/23/23 
f 125/140/125 72/76/72 78/84/78 
f 78/84/78 124/148/124 125/140/125 
f 79/85/79 74/79/74 109/115/109 
f 123/149/123 80/86/80 77/83/77 
f 77/83/77 122/147/122 123/149/123 
f 124/148/124 78/84/78 80/86/80 
f 80/86/80 123/149/123 124/148/124 
f 38/41/38 9/9/9 8/8/8 
f 8/8/8 39/42/39 38/41/38 
f 41/44/41 15/15/15 9/9/9 
f 9/9/9 38/41/38 41/44/41 
f 17/17/17 15/15/15 41/44/41 
f 41/44/41 42/45/42 17/17/17 
f 43/46/43 16/16/16 17/150/17 
f 17/150/17 42/47/42 43/46/43 
f 25/25/25 16/16/16 43/46/43 
f 43/46/43 44/48/44 25/25/25 
f 26/26/26 25/25/25 44/48/44 
f 44/48/44 45/49/45 26/26/26 
f 47/51/47 27/27/27 26/26/26 
f 26/26/26 45/49/45 47/51/47 
f 49/53/49 66/70/66 27/27/27 
f 27/27/27 47/51/47 49/53/49 
f 51/55/51 68/72/68 66/70/66 
f 66/70/66 49/53/49 51/55/51 
f 53/57/53 37/40/37 68/72/68 
f 68/72/68 51/55/51 53/57/53 
f 36/39/36 37/40/37 53/57/53 
f 53/57/53 55/59/55 36/39/36 
f 11/11/11 36/39/36 55/59/55 
f 55/59/55 57/61/57 11/11/11 
f 13/13/13 11/11/11 57/61/57 
f 57/61/57 59/63/59 13/13/13 
f 8/8/8 13/13/13 59/63/59 
f 59/63/59 39/42/39 8/8/8 
f 60/64/60 6/6/6 5/5/5 
f 5/5/5 61/65/61 60/64/60 
f 20/20/20 6/6/6 60/64/60 
f 60/64/60 62/66/62 20/20/20 
f 63/67/63 18/18/18 20/20/20 
f 20/20/20 62/66/62 63/67/63 
f 19/19/19 18/18/18 63/67/63 
f 63/67/63 64/68/64 19/19/19 
f 65/69/65 3/3/3 19/19/19 
f 19/19/19 64/68/64 65/69/65 
f 4/4/4 3/3/3 65/69/65 
f 65/69/65 67/71/67 4/4/4 
f 69/73/69 1/1/1 4/4/4 
f 4/4/4 67/71/67 69/73/69 
f 61/65/61 5/5/5 1/1/1 
f 1/1/1 69/73/69 61/65/61 
# 246 faces

