# 3ds Max Wavefront OBJ Exporter v0.97b - (c)2007 guruware
# File Created: 17.05.2017 09:57:01

mtllib cailloutest.mtl

#
# object Box001
#

v  -9.7228 -60.3248 1.8437
v  -23.1716 -23.1681 -23.2986
v  29.5395 -18.8001 -44.0223
v  27.6603 -62.3495 -4.7344
v  -18.8214 -60.8579 41.7052
v  43.1087 -64.3559 57.3616
v  -58.1781 -26.9533 21.8888
v  62.1221 -66.5492 4.2939
v  75.1020 -35.2164 -20.3874
v  86.4401 -69.8140 45.7199
v  111.4392 -29.8622 27.1248
v  -36.8304 120.7182 29.3372
v  -0.9878 106.4202 54.6413
v  46.6839 153.2160 28.7610
v  -9.6839 150.3115 3.5863
v  -71.2425 78.9864 31.0340
v  -49.8655 102.9196 -5.7026
v  -43.3963 47.3994 64.4316
v  45.8050 171.8050 -10.9097
v  32.3993 135.6219 -24.6673
v  101.7787 168.0304 4.8390
v  114.9965 138.0400 -20.3829
v  -12.3545 -29.9191 89.7942
v  -1.3298 -53.5558 71.0417
v  50.1424 -56.4631 84.0543
v  14.5139 -7.2998 98.5135
v  -66.5412 -0.8109 54.5799
v  -32.0860 -32.4188 64.2678
v  0.2414 -5.2038 74.7586
v  43.7059 39.6779 96.6942
v  80.8243 -12.5015 102.1873
v  85.1193 69.3653 85.2080
v  94.6355 20.0477 93.6922
v  41.8993 50.4099 72.5696
v  85.1921 95.8397 58.7498
v  122.4237 92.5035 34.3480
v  135.3816 63.7914 3.7590
v  116.0639 65.6282 64.9269
v  112.9717 -0.6147 87.5662
v  118.7033 2.8396 61.5870
v  101.5807 -43.3457 70.5257
v  98.7405 -39.0008 94.9954
v  86.1567 -60.9996 74.3784
v  105.8528 33.0939 -28.6225
v  73.8562 66.4721 -45.7284
v  0.1381 56.3892 -30.4662
v  -68.1577 34.9337 0.7112
v  -83.8875 34.1943 31.3513
v  43.8199 -63.5579 60.0602
v  -17.0530 -60.1196 44.6711
v  86.4115 -68.9229 48.6173
v  101.2935 -42.9064 72.9997
v  118.1238 2.4903 64.2136
v  121.7807 89.7863 37.4396
v  85.1847 93.1631 61.4247
v  42.0820 49.3248 75.0086
v  1.6843 -5.4157 77.1602
v  -30.0911 -32.1661 66.8485
# 58 vertices

vn -0.3357 -0.8538 -0.3979
vn -0.4945 -0.3435 -0.7984
vn -0.0377 -0.3173 -0.9476
vn -0.0523 -0.8865 -0.4597
vn -0.4372 -0.8827 0.1723
vn -0.0943 -0.9801 0.1748
vn -0.8046 -0.5707 -0.1641
vn 0.2350 -0.8871 -0.3972
vn 0.4783 -0.5076 -0.7166
vn 0.4407 -0.8974 -0.0203
vn 0.8675 -0.4452 -0.2221
vn -0.6060 0.6684 0.4314
vn -0.1544 0.4410 0.8841
vn -0.0615 0.7654 0.6406
vn -0.4975 0.8567 -0.1359
vn -0.8742 0.4095 0.2610
vn -0.6910 0.4194 -0.5887
vn -0.3645 0.1942 0.9107
vn -0.1498 0.9463 -0.2863
vn -0.1893 0.3326 -0.9239
vn 0.5059 0.8554 0.1112
vn 0.6920 0.4095 -0.5945
vn -0.5905 -0.0816 0.8029
vn -0.3136 -0.7993 0.5126
vn -0.0793 -0.7002 0.7095
vn -0.3184 0.1593 0.9345
vn -0.7334 -0.2677 0.6248
vn -0.6442 -0.3855 0.6606
vn -0.5149 0.3854 0.7657
vn -0.3851 0.4520 0.8046
vn 0.0365 -0.0618 0.9974
vn 0.1064 0.5463 0.8308
vn 0.3585 0.1962 0.9127
vn -0.4369 0.5254 0.7301
vn 0.1696 0.5608 0.8104
vn 0.8304 0.3435 0.4388
vn 0.9816 -0.0101 -0.1907
vn 0.7784 0.3054 0.5485
vn 0.8002 -0.0456 0.5980
vn 0.9746 -0.1628 0.1540
vn 0.8662 -0.4785 0.1439
vn 0.5386 -0.4394 0.7189
vn 0.3654 -0.8356 0.4102
vn 0.6103 -0.2202 -0.7609
vn 0.1444 0.0609 -0.9876
vn -0.3154 0.0973 -0.9440
vn -0.7456 -0.0287 -0.6658
vn -0.9927 0.0231 0.1180
vn -0.0870 -0.9489 0.3035
vn -0.3613 -0.8313 0.4223
vn 0.3988 -0.8754 0.2732
vn 0.8606 -0.4749 0.1842
vn 0.9699 -0.1455 0.1951
vn 0.8024 0.3557 0.4792
vn 0.0091 0.7062 0.7079
vn -0.6436 0.6673 0.3747
vn -0.6893 0.5654 0.4530
vn -0.7892 -0.0335 0.6133
# 58 vertex normals

vt 0.1271 0.6947 0.0000
vt 0.0454 0.6493 0.0000
vt 0.1121 0.5430 0.0000
vt 0.1839 0.6431 0.0000
vt 0.1404 0.7737 0.0000
vt 0.2695 0.7306 0.0000
vt 0.0259 0.7753 0.0000
vt 0.2520 0.6242 0.0000
vt 0.2323 0.5369 0.0000
vt 0.3455 0.6633 0.0000
vt 0.3618 0.5464 0.0000
vt 0.5362 0.3544 0.0000
vt 0.5128 0.4392 0.0000
vt 0.3755 0.4125 0.0000
vt 0.4687 0.3418 0.0000
vt 0.6282 0.3176 0.0000
vt 0.5594 0.2810 0.0000
vt 0.6688 0.4012 0.0000
vt 0.3713 0.3696 0.0000
vt 0.3988 0.3178 0.0000
vt 0.2817 0.3895 0.0000
vt 0.2604 0.3510 0.0000
vt 0.2158 0.8722 0.0000
vt 0.2016 0.8054 0.0000
vt 0.2987 0.7676 0.0000
vt 0.2809 0.9020 0.0000
vt 0.7750 0.3181 0.0000
vt 0.8181 0.4457 0.0000
vt 0.7286 0.5247 0.0000
vt 0.1048 0.8511 0.0000
vt 0.0005 0.8621 0.0000
vt 0.3751 0.9533 0.0000
vt 0.3848 0.8234 0.0000
vt 0.4832 0.9510 0.0000
vt 0.4365 0.8664 0.0000
vt 0.5273 0.5791 0.0000
vt 0.3112 0.5349 0.0000
vt 0.1489 0.4037 0.0000
vt 0.1610 0.2759 0.0000
vt 0.5464 0.9018 0.0000
vt 0.4434 0.8107 0.0000
vt 0.0442 0.1781 0.0000
vt 0.1030 0.0872 0.0000
vt 0.0049 0.0752 0.0000
vt 0.0416 0.0005 0.0000
vt 0.3868 0.7615 0.0000
vt 0.3582 0.7148 0.0000
vt 0.2390 0.1705 0.0000
vt 0.2434 0.0158 0.0000
vt 0.3293 0.2064 0.0000
vt 0.4042 0.0256 0.0000
vt 0.4910 0.1834 0.0000
vt 0.6544 0.2109 0.0000
vt 0.5822 0.0448 0.0000
vt 0.7495 0.1425 0.0000
vt 0.6975 0.2775 0.0000
vt 0.2749 0.7349 0.0000
vt 0.1439 0.7807 0.0000
vt 0.3470 0.6750 0.0000
vt 0.4042 0.7176 0.0000
vt 0.3975 0.7267 0.0000
vt 0.4819 0.7782 0.0000
vt 0.4773 0.7885 0.0000
vt 0.6257 0.9100 0.0000
vt 0.6189 0.9106 0.0000
vt 0.5424 0.9786 0.0000
vt 0.5349 0.9727 0.0000
vt 0.3899 0.9995 0.0000
vt 0.3877 0.9887 0.0000
vt 0.2412 0.9401 0.0000
vt 0.2503 0.9386 0.0000
vt 0.1592 0.8837 0.0000
vt 0.1653 0.8773 0.0000
# 73 texture coords

o Box001
g Box001
usemtl wire_138008110
s 1
f 1/1/1 2/2/2 3/3/3 
f 3/3/3 4/4/4 1/1/1 
f 5/5/5 1/1/1 4/4/4 
f 4/4/4 6/6/6 5/5/5 
f 1/1/1 5/5/5 7/7/7 
f 7/7/7 2/2/2 1/1/1 
f 8/8/8 4/4/4 3/3/3 
f 3/3/3 9/9/9 8/8/8 
f 10/10/10 8/8/8 9/9/9 
f 9/9/9 11/11/11 10/10/10 
f 8/8/8 10/10/10 6/6/6 
f 6/6/6 4/4/4 8/8/8 
f 12/12/12 13/13/13 14/14/14 
f 14/14/14 15/15/15 12/12/12 
f 16/16/16 12/12/12 15/15/15 
f 15/15/15 17/17/17 16/16/16 
f 12/12/12 16/16/16 18/18/18 
f 18/18/18 13/13/13 12/12/12 
f 19/19/19 20/20/20 17/17/17 
f 17/17/17 15/15/15 19/19/19 
f 21/21/21 19/19/19 15/15/15 
f 15/15/15 14/14/14 21/21/21 
f 19/19/19 21/21/21 22/22/22 
f 22/22/22 20/20/20 19/19/19 
f 23/23/23 24/24/24 25/25/25 
f 25/25/25 26/26/26 23/23/23 
f 27/27/27 28/28/28 29/29/29 
f 29/29/29 18/18/18 27/27/27 
f 28/30/28 27/31/27 7/7/7 
f 7/7/7 5/5/5 28/30/28 
f 30/32/30 26/26/26 25/25/25 
f 25/25/25 31/33/31 30/32/30 
f 32/34/32 30/32/30 31/33/31 
f 31/33/31 33/35/33 32/34/32 
f 34/36/34 35/37/35 14/14/14 
f 14/14/14 13/13/13 34/36/34 
f 29/29/29 34/36/34 13/13/13 
f 13/13/13 18/18/18 29/29/29 
f 36/38/36 37/39/37 22/22/22 
f 22/22/22 21/21/21 36/38/36 
f 35/37/35 36/38/36 21/21/21 
f 21/21/21 14/14/14 35/37/35 
f 38/40/38 32/34/32 33/35/33 
f 33/35/33 39/41/39 38/40/38 
f 37/39/37 36/38/36 40/42/40 
f 40/42/40 11/43/11 37/39/37 
f 41/44/41 10/45/10 11/43/11 
f 11/43/11 40/42/40 41/44/41 
f 31/33/31 42/46/42 39/41/39 
f 39/41/39 33/35/33 31/33/31 
f 42/46/42 31/33/31 25/25/25 
f 25/25/25 43/47/43 42/46/42 
f 44/48/44 37/39/37 11/43/11 
f 11/43/11 9/49/9 44/48/44 
f 45/50/45 44/48/44 9/49/9 
f 9/49/9 3/51/3 45/50/45 
f 44/48/44 45/50/45 22/22/22 
f 22/22/22 37/39/37 44/48/44 
f 46/52/46 47/53/47 17/17/17 
f 17/17/17 20/20/20 46/52/46 
f 45/50/45 46/52/46 20/20/20 
f 20/20/20 22/22/22 45/50/45 
f 46/52/46 45/50/45 3/51/3 
f 3/51/3 2/54/2 46/52/46 
f 47/53/47 46/52/46 2/54/2 
f 2/54/2 7/55/7 47/53/47 
f 48/56/48 27/27/27 18/18/18 
f 18/18/18 16/16/16 48/56/48 
f 47/53/47 48/56/48 16/16/16 
f 16/16/16 17/17/17 47/53/47 
f 48/56/48 47/53/47 7/55/7 
f 7/55/7 27/27/27 48/56/48 
f 6/6/6 49/57/49 50/58/50 
f 50/58/50 5/5/5 6/6/6 
f 6/6/6 10/10/10 51/59/51 
f 51/59/51 49/57/49 6/6/6 
f 41/60/41 52/61/52 51/59/51 
f 51/59/51 10/10/10 41/60/41 
f 41/60/41 40/62/40 53/63/53 
f 53/63/53 52/61/52 41/60/41 
f 40/62/40 36/64/36 54/65/54 
f 54/65/54 53/63/53 40/62/40 
f 35/66/35 55/67/55 54/65/54 
f 54/65/54 36/64/36 35/66/35 
f 34/68/34 56/69/56 55/67/55 
f 55/67/55 35/66/35 34/68/34 
f 29/70/29 57/71/57 56/69/56 
f 56/69/56 34/68/34 29/70/29 
f 29/70/29 28/72/28 58/73/58 
f 58/73/58 57/71/57 29/70/29 
f 28/72/28 5/5/5 50/58/50 
f 50/58/50 58/73/58 28/72/28 
f 49/57/49 25/25/25 24/24/24 
f 24/24/24 50/58/50 49/57/49 
f 43/47/43 25/25/25 49/57/49 
f 49/57/49 51/59/51 43/47/43 
f 52/61/52 42/46/42 43/47/43 
f 43/47/43 51/59/51 52/61/52 
f 39/41/39 42/46/42 52/61/52 
f 52/61/52 53/63/53 39/41/39 
f 38/40/38 39/41/39 53/63/53 
f 53/63/53 54/65/54 38/40/38 
f 55/67/55 32/34/32 38/40/38 
f 38/40/38 54/65/54 55/67/55 
f 56/69/56 30/32/30 32/34/32 
f 32/34/32 55/67/55 56/69/56 
f 57/71/57 26/26/26 30/32/30 
f 30/32/30 56/69/56 57/71/57 
f 23/23/23 26/26/26 57/71/57 
f 57/71/57 58/73/58 23/23/23 
f 24/24/24 23/23/23 58/73/58 
f 58/73/58 50/58/50 24/24/24 
# 112 faces

