# 3ds Max Wavefront OBJ Exporter v0.97b - (c)2007 guruware
# File Created: 18.05.2017 10:43:56

mtllib SM_monolithe2.mtl

#
# object Box013
#

v  -32.8034 -210.5580 -96.8818
v  -44.7349 -210.5580 -74.0696
v  -56.4894 -118.7047 -70.1399
v  -32.4822 -129.6427 -104.6116
v  -0.0000 -210.5580 -112.9010
v  -0.0000 -210.5580 -74.0696
v  -60.5888 -210.5580 -15.0928
v  -69.8885 -120.4839 -6.8142
v  -27.9758 79.7697 -74.1696
v  -22.8678 117.8245 -67.1181
v  -0.0000 122.6052 -72.4712
v  -0.0000 68.5251 -84.9106
v  -56.3640 121.4723 -45.8419
v  -34.4577 156.8614 -43.9360
v  -27.0037 -54.5031 -101.2920
v  -29.3718 30.1724 -88.8152
v  0.0000 25.8308 -96.7196
v  -0.0000 -68.9272 -112.0656
v  -55.5053 -42.1846 -64.6748
v  -55.6532 40.5535 -70.2274
v  -63.4723 38.7667 -60.8568
v  -63.4120 66.9727 -55.1174
v  -65.9745 -42.9942 -24.9767
v  -64.8932 -25.1729 -45.8661
v  -64.1087 10.2473 -56.1116
v  -0.0000 -210.5580 -1.8558
v  -36.2515 177.0206 0.3175
v  -62.1830 140.4013 0.3153
v  -64.5715 104.7583 -40.2487
v  -64.9740 118.6102 -18.0071
v  -32.8034 -210.5580 97.5175
v  -30.1119 -124.1428 104.7701
v  -54.1764 -117.4535 69.0171
v  -34.5913 -210.5580 74.7053
v  -0.0000 -210.5580 74.7053
v  -0.0000 -210.5580 113.5367
v  -36.4347 80.4133 74.8977
v  0.0000 70.4095 86.1629
v  -0.0000 118.5043 73.5966
v  -31.5320 115.1232 68.1041
v  -57.6719 120.4025 46.5032
v  -36.3268 149.6927 44.3122
v  -33.4168 -45.1244 98.7431
v  -0.0000 -58.5696 111.0267
v  0.0000 27.9781 97.5746
v  -34.9064 31.9655 88.5300
v  -56.6340 -40.8953 66.1919
v  -56.0165 40.5535 71.0945
v  -64.5713 104.6584 40.9491
v  -63.4124 66.8400 55.7873
v  -65.9671 -43.0386 25.8179
v  -67.2705 -51.3533 0.2655
v  -66.3426 -61.4108 -0.3285
v  -64.1126 10.1128 56.7040
v  -64.8754 -25.2758 46.7820
v  -64.9739 118.5565 18.7263
v  -0.0000 -139.7298 -117.1361
v  0.0000 -133.6362 117.9056
v  -64.9320 125.5199 0.3627
v  -65.2122 111.2474 -19.5172
v  -65.2446 117.6983 0.6404
v  -65.8302 8.5972 -50.0614
v  -65.2370 39.1382 -54.4295
v  -65.0484 69.3727 -49.1390
v  -65.0426 95.2829 -37.3669
v  -67.1577 -34.9182 -20.7903
v  -66.5237 -18.0532 -38.8273
v  -63.4746 38.6218 61.4884
v  -65.0514 68.4722 50.0388
v  -65.2502 38.1549 55.0700
v  -67.1722 -35.2956 20.7975
v  -67.3910 -42.0879 -0.0212
v  -65.8520 7.6847 50.4362
v  -66.5466 -18.7517 38.9792
v  -65.2086 110.8819 20.7548
v  -65.0393 94.6014 38.4748
v  -57.1091 91.7325 -35.0923
v  -57.2024 107.4976 -18.5051
v  -58.3276 -14.3450 -36.3825
v  -57.7484 10.2756 -47.4111
v  -57.2991 39.1549 -50.9875
v  -57.0974 67.7740 -46.5815
v  -59.0124 -36.8306 -0.0526
v  -58.8170 -30.8844 -19.7211
v  -57.1066 90.9864 36.2439
v  -57.1007 66.7894 47.5053
v  -58.3487 -15.1084 36.4905
v  -58.8304 -31.2970 19.6704
v  -57.3118 38.0803 51.6283
v  -57.7687 9.2787 47.7625
v  -57.2490 112.8609 0.6716
v  -57.1994 107.0972 19.8000
v  0.0000 91.2827 -34.7964
v  0.0000 106.9171 -18.3498
v  -0.0000 -13.8913 -36.0691
v  -0.0000 10.5185 -47.0019
v  -0.0000 39.1503 -50.5486
v  -0.0000 67.5257 -46.1842
v  0.0000 -36.1857 -0.0495
v  -0.0000 -30.2898 -19.5510
v  0.0000 90.5428 35.9436
v  -0.0000 66.5493 47.1052
v  0.0000 -14.6481 36.1816
v  -0.0000 -30.6990 19.5061
v  0.0000 38.0849 51.1892
v  -0.0000 9.5301 47.3557
v  0.0000 112.2364 0.6686
v  0.0000 106.5200 19.6392
v  0.0000 173.7253 -45.7035
v  -0.0000 197.8817 -0.1755
v  0.0000 162.8045 44.9318
v  32.8034 -210.5580 -96.8818
v  32.4822 -129.6427 -104.6116
v  56.4894 -118.7047 -70.1400
v  44.7349 -210.5580 -74.0696
v  69.8884 -120.4839 -6.8142
v  60.5889 -210.5580 -15.0928
v  27.9758 79.7697 -74.1696
v  22.8678 117.8246 -67.1180
v  56.3640 121.4723 -45.8419
v  34.4577 156.8614 -43.9360
v  27.0037 -54.5031 -101.2919
v  29.3718 30.1724 -88.8152
v  55.5052 -42.1846 -64.6749
v  55.6532 40.5535 -70.2274
v  63.4120 66.9727 -55.1174
v  63.4723 38.7667 -60.8568
v  64.8932 -25.1729 -45.8661
v  65.9745 -42.9942 -24.9767
v  64.1087 10.2472 -56.1116
v  36.2515 177.0205 0.3175
v  62.1830 140.4012 0.3153
v  64.9740 118.6103 -18.0072
v  64.5715 104.7584 -40.2487
v  32.8034 -210.5580 97.5175
v  34.5912 -210.5580 74.7053
v  54.1764 -117.4535 69.0171
v  30.1119 -124.1428 104.7701
v  36.4346 80.4133 74.8976
v  31.5320 115.1233 68.1041
v  57.6720 120.4026 46.5033
v  36.3268 149.6927 44.3122
v  33.4168 -45.1244 98.7431
v  34.9064 31.9655 88.5299
v  56.6340 -40.8953 66.1919
v  56.0165 40.5534 71.0945
v  63.4124 66.8399 55.7873
v  64.5713 104.6585 40.9491
v  65.9671 -43.0386 25.8179
v  66.3426 -61.4108 -0.3285
v  67.2705 -51.3533 0.2655
v  64.8754 -25.2757 46.7820
v  64.1126 10.1129 56.7039
v  64.9739 118.5566 18.7264
v  64.9320 125.5199 0.3627
v  65.2446 117.6983 0.6404
v  65.2122 111.2475 -19.5172
v  65.2370 39.1383 -54.4295
v  65.8302 8.5972 -50.0614
v  65.0426 95.2831 -37.3670
v  65.0484 69.3728 -49.1390
v  66.5237 -18.0532 -38.8273
v  67.1577 -34.9182 -20.7903
v  63.4746 38.6218 61.4884
v  65.2502 38.1549 55.0700
v  65.0514 68.4722 50.0388
v  67.3910 -42.0880 -0.0212
v  67.1722 -35.2956 20.7974
v  66.5466 -18.7517 38.9792
v  65.8520 7.6848 50.4362
v  65.0393 94.6015 38.4748
v  65.2086 110.8818 20.7549
v  57.2024 107.4976 -18.5051
v  57.1091 91.7325 -35.0922
v  57.7484 10.2756 -47.4110
v  58.3276 -14.3450 -36.3825
v  57.0974 67.7740 -46.5815
v  57.2991 39.1549 -50.9875
v  58.8170 -30.8844 -19.7211
v  59.0124 -36.8306 -0.0526
v  57.1007 66.7893 47.5053
v  57.1066 90.9863 36.2439
v  58.8304 -31.2970 19.6705
v  58.3487 -15.1084 36.4905
v  57.7687 9.2787 47.7625
v  57.3117 38.0804 51.6283
v  57.1994 107.0971 19.8000
v  57.2490 112.8607 0.6716
# 188 vertices

vn -0.5269 -0.6671 -0.5267
vn -0.6450 -0.7199 -0.2564
vn -0.9179 -0.0240 -0.3960
vn -0.6140 0.0049 -0.7893
vn -0.0000 -0.6427 -0.7661
vn 0.0000 -1.0000 -0.0000
vn -0.7249 -0.6889 -0.0045
vn -0.9997 -0.0226 -0.0024
vn -0.3736 0.2478 -0.8939
vn -0.4557 0.2830 -0.8439
vn 0.0000 0.3550 -0.9349
vn 0.0000 0.2514 -0.9679
vn -0.7147 0.3626 -0.5982
vn -0.5529 0.5851 -0.5932
vn -0.5579 0.0977 -0.8241
vn -0.3797 0.1934 -0.9047
vn -0.0000 0.2070 -0.9783
vn 0.0000 0.1018 -0.9948
vn -0.8955 -0.0426 -0.4430
vn -0.6526 0.0904 -0.7523
vn -0.8759 0.0124 -0.4824
vn -0.7967 0.1871 -0.5747
vn -0.9640 -0.1978 -0.1775
vn -0.9589 -0.1229 -0.2556
vn -0.8069 -0.1322 -0.5756
vn -0.6428 0.7648 0.0443
vn -0.8936 0.4488 -0.0044
vn -0.9368 0.1740 -0.3035
vn -0.9817 0.1604 -0.1023
vn -0.6622 -0.6177 0.4242
vn -0.6293 -0.0008 0.7772
vn -0.9210 -0.0879 0.3795
vn -0.6002 -0.7929 0.1055
vn 0.0000 -0.6416 0.7670
vn -0.4518 0.2213 0.8643
vn 0.0000 0.2570 0.9664
vn -0.0000 0.4056 0.9141
vn -0.5256 0.3328 0.7829
vn -0.7293 0.3845 0.5660
vn -0.4830 0.6293 0.6088
vn -0.5884 0.0686 0.8057
vn -0.0000 0.1146 0.9934
vn 0.0000 0.2016 0.9795
vn -0.4165 0.1701 0.8931
vn -0.9083 -0.0541 0.4148
vn -0.6959 0.0883 0.7127
vn -0.9476 0.1571 0.2782
vn -0.8111 0.1796 0.5567
vn -0.9668 -0.1930 0.1677
vn -0.9982 -0.0604 0.0024
vn -0.9996 -0.0280 -0.0025
vn -0.8265 -0.1210 0.5498
vn -0.9657 -0.1109 0.2350
vn -0.9816 0.1607 0.1028
vn -0.0000 -0.0057 -1.0000
vn -0.0000 0.0041 1.0000
vn -0.9919 0.1272 0.0003
vn -0.8911 -0.4016 0.2115
vn -0.9225 -0.3861 -0.0023
vn -0.9201 0.1202 0.3727
vn -0.9265 0.0084 0.3762
vn -0.9244 -0.1012 0.3677
vn -0.8983 -0.2733 0.3439
vn -0.9123 0.3637 0.1881
vn -0.9241 0.2493 0.2896
vn -0.8850 0.0126 0.4655
vn -0.9228 -0.1017 -0.3716
vn -0.9265 0.0087 -0.3761
vn -0.9125 0.3647 -0.1853
vn -0.9199 0.3921 0.0021
vn -0.9216 0.1201 -0.3690
vn -0.9237 0.2511 -0.2893
vn -0.8912 -0.3988 -0.2162
vn -0.8982 -0.2703 -0.3468
vn -0.2363 -0.5641 0.7912
vn -0.2293 -0.8425 0.4874
vn -0.2402 0.5479 0.8013
vn -0.1833 0.2628 0.9473
vn -0.2100 -0.0124 0.9776
vn -0.1808 -0.2860 0.9410
vn -0.2973 0.9547 0.0103
vn -0.2349 0.8317 0.5030
vn -0.2349 -0.5530 -0.7994
vn -0.1802 -0.2751 -0.9444
vn -0.2415 0.5593 -0.7930
vn -0.2361 0.8408 -0.4871
vn -0.2100 -0.0017 -0.9777
vn -0.1839 0.2739 -0.9440
vn -0.2875 -0.9577 -0.0103
vn -0.2281 -0.8335 -0.5033
vn -0.0000 -0.5879 0.8089
vn 0.0000 -0.8694 0.4941
vn -0.0000 0.5685 0.8227
vn -0.0000 0.2686 0.9632
vn -0.0000 -0.0147 0.9999
vn 0.0000 -0.2951 0.9555
vn 0.0000 0.9999 0.0100
vn 0.0000 0.8587 0.5125
vn -0.0000 -0.5770 -0.8167
vn 0.0000 -0.2848 -0.9586
vn 0.0000 0.5797 -0.8149
vn 0.0000 0.8677 -0.4972
vn 0.0000 -0.0045 -1.0000
vn -0.0000 0.2792 -0.9602
vn -0.0000 -1.0000 -0.0100
vn -0.0000 -0.8606 -0.5093
vn 0.0000 0.7387 -0.6741
vn 0.0000 0.9975 0.0713
vn -0.0000 0.6938 0.7201
vn 0.5269 -0.6671 -0.5267
vn 0.6140 0.0049 -0.7893
vn 0.9179 -0.0240 -0.3960
vn 0.6450 -0.7199 -0.2564
vn 0.9997 -0.0226 -0.0024
vn 0.7249 -0.6889 -0.0045
vn 0.3736 0.2478 -0.8939
vn 0.4557 0.2830 -0.8439
vn 0.7147 0.3626 -0.5982
vn 0.5529 0.5851 -0.5932
vn 0.5579 0.0977 -0.8241
vn 0.3797 0.1934 -0.9047
vn 0.8955 -0.0426 -0.4430
vn 0.6526 0.0904 -0.7523
vn 0.7967 0.1870 -0.5747
vn 0.8759 0.0124 -0.4824
vn 0.9589 -0.1229 -0.2556
vn 0.9640 -0.1978 -0.1775
vn 0.8069 -0.1322 -0.5756
vn 0.6428 0.7648 0.0443
vn 0.8936 0.4488 -0.0044
vn 0.9817 0.1604 -0.1023
vn 0.9368 0.1740 -0.3035
vn 0.6622 -0.6177 0.4242
vn 0.6002 -0.7929 0.1055
vn 0.9210 -0.0879 0.3795
vn 0.6293 -0.0008 0.7772
vn 0.4518 0.2213 0.8643
vn 0.5256 0.3328 0.7829
vn 0.7293 0.3845 0.5660
vn 0.4830 0.6293 0.6088
vn 0.5884 0.0686 0.8057
vn 0.4165 0.1701 0.8931
vn 0.9083 -0.0541 0.4148
vn 0.6959 0.0883 0.7127
vn 0.8111 0.1795 0.5567
vn 0.9476 0.1571 0.2782
vn 0.9668 -0.1930 0.1677
vn 0.9996 -0.0280 -0.0025
vn 0.9982 -0.0604 0.0024
vn 0.9657 -0.1109 0.2350
vn 0.8265 -0.1210 0.5498
vn 0.9816 0.1607 0.1028
vn 0.9919 0.1272 0.0003
vn 0.9225 -0.3861 -0.0023
vn 0.8911 -0.4016 0.2115
vn 0.9265 0.0084 0.3762
vn 0.9201 0.1202 0.3727
vn 0.8983 -0.2733 0.3439
vn 0.9244 -0.1012 0.3677
vn 0.9241 0.2493 0.2896
vn 0.9123 0.3637 0.1881
vn 0.8850 0.0126 0.4655
vn 0.9265 0.0087 -0.3761
vn 0.9228 -0.1017 -0.3716
vn 0.9199 0.3921 0.0021
vn 0.9125 0.3647 -0.1853
vn 0.9237 0.2511 -0.2893
vn 0.9216 0.1201 -0.3690
vn 0.8982 -0.2703 -0.3468
vn 0.8912 -0.3988 -0.2162
vn 0.2293 -0.8425 0.4874
vn 0.2363 -0.5641 0.7912
vn 0.1833 0.2628 0.9473
vn 0.2402 0.5479 0.8013
vn 0.1808 -0.2860 0.9410
vn 0.2100 -0.0124 0.9776
vn 0.2349 0.8317 0.5030
vn 0.2973 0.9547 0.0103
vn 0.1802 -0.2751 -0.9444
vn 0.2349 -0.5530 -0.7994
vn 0.2361 0.8408 -0.4871
vn 0.2415 0.5593 -0.7930
vn 0.1839 0.2739 -0.9440
vn 0.2100 -0.0017 -0.9777
vn 0.2281 -0.8335 -0.5032
vn 0.2875 -0.9577 -0.0103
# 186 vertex normals

vt 0.0902 0.1570 0.0000
vt 0.1180 0.1633 0.0000
vt 0.1142 0.3048 0.0000
vt 0.0576 0.2777 0.0000
vt 0.0470 0.1352 0.0000
vt 0.1000 0.1017 0.0000
vt 0.1933 0.1723 0.0000
vt 0.2052 0.3096 0.0000
vt 0.0711 0.6175 0.0000
vt 0.0906 0.6785 0.0000
vt 0.0687 0.7040 0.0000
vt 0.0257 0.6163 0.0000
vt 0.1406 0.6648 0.0000
vt 0.1460 0.7231 0.0000
vt 0.0427 0.3983 0.0000
vt 0.0522 0.5346 0.0000
vt 0.0091 0.5346 0.0000
vt 0.0005 0.3754 0.0000
vt 0.1114 0.4260 0.0000
vt 0.0968 0.5492 0.0000
vt 0.1125 0.5483 0.0000
vt 0.1176 0.5891 0.0000
vt 0.1742 0.4361 0.0000
vt 0.1418 0.4592 0.0000
vt 0.1229 0.5085 0.0000
vt 0.2073 0.0823 0.0000
vt 0.2143 0.7467 0.0000
vt 0.2103 0.6859 0.0000
vt 0.1440 0.6411 0.0000
vt 0.1801 0.6564 0.0000
vt 0.3370 0.1593 0.0000
vt 0.3758 0.2827 0.0000
vt 0.3129 0.3060 0.0000
vt 0.3164 0.1553 0.0000
vt 0.3203 0.0977 0.0000
vt 0.3701 0.1261 0.0000
vt 0.3405 0.6094 0.0000
vt 0.3977 0.6060 0.0000
vt 0.3618 0.6836 0.0000
vt 0.3231 0.6624 0.0000
vt 0.2789 0.6600 0.0000
vt 0.2794 0.7089 0.0000
vt 0.3790 0.4096 0.0000
vt 0.4313 0.3801 0.0000
vt 0.4200 0.5281 0.0000
vt 0.3666 0.5329 0.0000
vt 0.3147 0.4288 0.0000
vt 0.3265 0.5487 0.0000
vt 0.2724 0.6388 0.0000
vt 0.3012 0.5887 0.0000
vt 0.2505 0.4370 0.0000
vt 0.2123 0.4269 0.0000
vt 0.2120 0.4066 0.0000
vt 0.3005 0.5096 0.0000
vt 0.2826 0.4606 0.0000
vt 0.2368 0.6548 0.0000
vt 0.0126 0.2534 0.0000
vt 0.4203 0.2475 0.0000
vt 0.2089 0.6641 0.0000
vt 0.1760 0.6463 0.0000
vt 0.2080 0.6523 0.0000
vt 0.1316 0.5087 0.0000
vt 0.1199 0.5501 0.0000
vt 0.1240 0.5933 0.0000
vt 0.1445 0.6282 0.0000
vt 0.1811 0.4535 0.0000
vt 0.1528 0.4742 0.0000
vt 0.3102 0.5490 0.0000
vt 0.2925 0.5929 0.0000
vt 0.3024 0.5516 0.0000
vt 0.2434 0.4539 0.0000
vt 0.2122 0.4457 0.0000
vt 0.2927 0.5100 0.0000
vt 0.2719 0.4751 0.0000
vt 0.2389 0.6439 0.0000
vt 0.2689 0.6253 0.0000
vt 0.1515 0.6186 0.0000
vt 0.1783 0.6349 0.0000
vt 0.1610 0.4865 0.0000
vt 0.1416 0.5159 0.0000
vt 0.1313 0.5519 0.0000
vt 0.1345 0.5890 0.0000
vt 0.2128 0.4619 0.0000
vt 0.1859 0.4685 0.0000
vt 0.2593 0.6149 0.0000
vt 0.2805 0.5884 0.0000
vt 0.2660 0.4867 0.0000
vt 0.2401 0.4682 0.0000
vt 0.2911 0.5538 0.0000
vt 0.2851 0.5172 0.0000
vt 0.2064 0.6388 0.0000
vt 0.2333 0.6314 0.0000
vt 0.4202 0.9654 0.0000
vt 0.4200 0.9312 0.0000
vt 0.5282 0.9302 0.0000
vt 0.5288 0.9645 0.0000
vt 0.4219 0.8274 0.0000
vt 0.4220 0.8039 0.0000
vt 0.5335 0.8039 0.0000
vt 0.5329 0.8286 0.0000
vt 0.4203 0.8943 0.0000
vt 0.4211 0.8584 0.0000
vt 0.5310 0.8595 0.0000
vt 0.5288 0.8943 0.0000
vt 0.4217 0.7894 0.0000
vt 0.4203 0.7804 0.0000
vt 0.5289 0.7694 0.0000
vt 0.5321 0.7854 0.0000
vt 0.4224 0.6421 0.0000
vt 0.4234 0.6090 0.0000
vt 0.5307 0.6111 0.0000
vt 0.5306 0.6472 0.0000
vt 0.4172 0.7675 0.0000
vt 0.4139 0.7453 0.0000
vt 0.5253 0.7366 0.0000
vt 0.5262 0.7544 0.0000
vt 0.4141 0.7132 0.0000
vt 0.4181 0.6770 0.0000
vt 0.5286 0.6821 0.0000
vt 0.5260 0.7125 0.0000
vt 0.4218 0.5773 0.0000
vt 0.4202 0.5444 0.0000
vt 0.5294 0.5431 0.0000
vt 0.5301 0.5767 0.0000
vt 0.4205 0.9995 0.0000
vt 0.5295 0.9982 0.0000
vt 0.1393 0.7744 0.0000
vt 0.2252 0.8001 0.0000
vt 0.3062 0.7520 0.0000
vt 0.9256 0.0041 0.0000
vt 0.9414 0.1255 0.0000
vt 0.8813 0.1453 0.0000
vt 0.8866 0.0060 0.0000
vt 0.0833 0.0397 0.0000
vt 0.0476 0.0737 0.0000
vt 0.7858 0.1465 0.0000
vt 0.7950 0.0097 0.0000
vt 0.9170 0.4453 0.0000
vt 0.9626 0.4374 0.0000
vt 0.9295 0.5194 0.0000
vt 0.9010 0.5017 0.0000
vt 0.8475 0.4927 0.0000
vt 0.8499 0.5483 0.0000
vt 0.9496 0.2399 0.0000
vt 0.9910 0.2182 0.0000
vt 0.9802 0.3666 0.0000
vt 0.9366 0.3691 0.0000
vt 0.8803 0.2617 0.0000
vt 0.8924 0.3817 0.0000
vt 0.8677 0.4189 0.0000
vt 0.8779 0.3798 0.0000
vt 0.8507 0.2910 0.0000
vt 0.8175 0.2678 0.0000
vt 0.8698 0.3398 0.0000
vt 0.1770 0.0005 0.0000
vt 0.7875 0.5774 0.0000
vt 0.7807 0.5156 0.0000
vt 0.8066 0.4836 0.0000
vt 0.8402 0.4681 0.0000
vt 0.6180 0.0088 0.0000
vt 0.6545 0.0077 0.0000
vt 0.6704 0.1509 0.0000
vt 0.6050 0.1395 0.0000
vt 0.3235 0.0413 0.0000
vt 0.3612 0.0600 0.0000
vt 0.6523 0.4518 0.0000
vt 0.6707 0.5051 0.0000
vt 0.6389 0.5379 0.0000
vt 0.5960 0.4615 0.0000
vt 0.7144 0.4952 0.0000
vt 0.7176 0.5472 0.0000
vt 0.6126 0.2606 0.0000
vt 0.6278 0.3783 0.0000
vt 0.5753 0.3856 0.0000
vt 0.5573 0.2461 0.0000
vt 0.6748 0.2669 0.0000
vt 0.6659 0.3852 0.0000
vt 0.6904 0.4206 0.0000
vt 0.7179 0.4707 0.0000
vt 0.7397 0.2684 0.0000
vt 0.7790 0.2393 0.0000
vt 0.7789 0.2578 0.0000
vt 0.7068 0.2919 0.0000
vt 0.6887 0.3409 0.0000
vt 0.7517 0.4850 0.0000
vt 0.9902 0.1079 0.0000
vt 0.5545 0.1264 0.0000
vt 0.5624 0.0087 0.0000
vt 0.7794 0.4926 0.0000
vt 0.7780 0.4804 0.0000
vt 0.8081 0.4725 0.0000
vt 0.8703 0.3819 0.0000
vt 0.8628 0.3396 0.0000
vt 0.8371 0.4547 0.0000
vt 0.8599 0.4228 0.0000
vt 0.8422 0.3041 0.0000
vt 0.8126 0.2831 0.0000
vt 0.6808 0.3810 0.0000
vt 0.6885 0.3796 0.0000
vt 0.6958 0.4219 0.0000
vt 0.7805 0.2749 0.0000
vt 0.7488 0.2832 0.0000
vt 0.7196 0.3035 0.0000
vt 0.6982 0.3378 0.0000
vt 0.7170 0.4559 0.0000
vt 0.7469 0.4740 0.0000
vt 0.8028 0.4598 0.0000
vt 0.8282 0.4439 0.0000
vt 0.8543 0.3460 0.0000
vt 0.8360 0.3152 0.0000
vt 0.8489 0.4176 0.0000
vt 0.8594 0.3830 0.0000
vt 0.8096 0.2966 0.0000
vt 0.7817 0.2905 0.0000
vt 0.7048 0.4164 0.0000
vt 0.7228 0.4458 0.0000
vt 0.7544 0.2973 0.0000
vt 0.7290 0.3150 0.0000
vt 0.7094 0.3437 0.0000
vt 0.6999 0.3796 0.0000
vt 0.7491 0.4623 0.0000
vt 0.7765 0.4666 0.0000
vt 0.6370 0.9643 0.0000
vt 0.6358 0.9328 0.0000
vt 0.6447 0.8266 0.0000
vt 0.6442 0.7949 0.0000
vt 0.6372 0.8996 0.0000
vt 0.6413 0.8634 0.0000
vt 0.6410 0.7724 0.0000
vt 0.6385 0.7604 0.0000
vt 0.6389 0.6467 0.0000
vt 0.6390 0.6101 0.0000
vt 0.6374 0.7520 0.0000
vt 0.6369 0.7374 0.0000
vt 0.6373 0.7147 0.0000
vt 0.6382 0.6834 0.0000
vt 0.6388 0.5758 0.0000
vt 0.6385 0.5417 0.0000
vt 0.6386 0.9970 0.0000
vt 0.9801 0.0005 0.0000
vt 0.8757 0.5934 0.0000
vt 0.8006 0.6308 0.0000
vt 0.7078 0.5987 0.0000
# 243 texture coords

o Box013
g Box013
usemtl Material__2
s 1
f 1/1/1 2/2/2 3/3/3 4/4/4 
f 2/2/2 1/1/1 5/5/5 6/6/6 
f 2/2/2 7/7/7 8/8/8 3/3/3 
f 9/9/9 10/10/10 11/11/11 12/12/12 
f 13/13/13 14/14/14 10/10/10 9/9/9 
f 15/15/15 16/16/16 17/17/17 18/18/18 
f 19/19/19 20/20/20 16/16/16 15/15/15 
f 20/20/20 21/21/21 22/22/22 
f 19/19/19 23/23/23 24/24/24 
f 16/16/16 9/9/9 12/12/12 17/17/17 
f 20/20/20 13/13/13 9/9/9 16/16/16 
f 20/20/20 25/25/25 21/21/21 
f 7/7/7 2/2/2 6/6/6 26/26/6 
f 27/27/26 14/14/14 13/13/13 28/28/27 
f 28/28/27 13/13/13 29/29/28 30/30/29 
f 31/31/30 32/32/31 33/33/32 34/34/33 
f 34/34/33 35/35/6 36/36/34 31/31/30 
f 34/34/33 33/33/32 8/8/8 7/7/7 
f 37/37/35 38/38/36 39/39/37 40/40/38 
f 41/41/39 37/37/35 40/40/38 42/42/40 
f 43/43/41 44/44/42 45/45/43 46/46/44 
f 47/47/45 43/43/41 46/46/44 48/48/46 
f 41/41/39 49/49/47 50/50/48 48/48/46 
f 51/51/49 52/52/50 53/53/51 
f 46/46/44 45/45/43 38/38/36 37/37/35 
f 48/48/46 46/46/44 37/37/35 41/41/39 
f 48/48/46 54/54/52 55/55/53 47/47/45 
f 7/7/7 26/26/6 35/35/6 34/34/33 
f 27/27/26 28/28/27 41/41/39 42/42/40 
f 28/28/27 56/56/54 49/49/47 41/41/39 
f 3/3/3 19/19/19 15/15/15 4/4/4 
f 8/8/8 53/53/51 19/19/19 3/3/3 
f 32/32/31 43/43/41 47/47/45 33/33/32 
f 33/33/32 47/47/45 53/53/51 8/8/8 
f 4/4/4 15/15/15 18/18/18 57/57/55 
f 32/32/31 31/31/30 36/36/34 58/58/56 
f 59/59/57 30/30/29 60/60/58 61/61/59 
f 21/21/21 25/25/25 62/62/60 63/63/61 
f 29/29/28 22/22/22 64/64/62 65/65/63 
f 24/24/24 23/23/23 66/66/64 67/67/65 
f 68/68/66 50/50/48 69/69/67 70/70/68 
f 52/52/50 51/51/49 71/71/69 72/72/70 
f 55/55/53 54/54/52 73/73/71 74/74/72 
f 49/49/47 56/56/54 75/75/73 76/76/74 
f 30/30/29 29/29/28 65/65/63 60/60/58 
f 56/56/54 59/59/57 61/61/59 75/75/73 
f 50/50/48 49/49/47 76/76/74 69/69/67 
f 54/54/52 68/68/66 70/70/68 73/73/71 
f 51/51/49 55/55/53 74/74/72 71/71/69 
f 23/23/23 52/52/50 72/72/70 66/66/64 
f 25/25/25 24/24/24 67/67/65 62/62/60 
f 22/22/22 21/21/21 63/63/61 64/64/62 
f 30/30/29 59/59/57 28/28/27 
f 28/28/27 59/59/57 56/56/54 
f 22/22/22 29/29/28 13/13/13 20/20/20 
f 20/20/20 19/19/19 24/24/24 25/25/25 
f 53/53/51 52/52/50 23/23/23 
f 23/23/23 19/19/19 53/53/51 
f 47/47/45 55/55/53 51/51/49 
f 51/51/49 53/53/51 47/47/45 
f 50/50/48 68/68/66 48/48/46 
f 48/48/46 68/68/66 54/54/52 
f 60/60/58 65/65/63 77/77/75 78/78/76 
f 62/62/60 67/67/65 79/79/77 80/80/78 
f 64/64/62 63/63/61 81/81/79 82/82/80 
f 66/66/64 72/72/70 83/83/81 84/84/82 
f 69/69/67 76/76/74 85/85/83 86/86/84 
f 71/71/69 74/74/72 87/87/85 88/88/86 
f 73/73/71 70/70/68 89/89/87 90/90/88 
f 75/75/73 61/61/59 91/91/89 92/92/90 
f 61/61/59 60/60/58 78/78/76 91/91/89 
f 76/76/74 75/75/73 92/92/90 85/85/83 
f 70/70/68 69/69/67 86/86/84 89/89/87 
f 74/74/72 73/73/71 90/90/88 87/87/85 
f 72/72/70 71/71/69 88/88/86 83/83/81 
f 67/67/65 66/66/64 84/84/82 79/79/77 
f 63/63/61 62/62/60 80/80/78 81/81/79 
f 65/65/63 64/64/62 82/82/80 77/77/75 
f 78/93/76 77/94/75 93/95/91 94/96/92 
f 80/97/78 79/98/77 95/99/93 96/100/94 
f 82/101/80 81/102/79 97/103/95 98/104/96 
f 84/105/82 83/106/81 99/107/97 100/108/98 
f 86/109/84 85/110/83 101/111/99 102/112/100 
f 88/113/86 87/114/85 103/115/101 104/116/102 
f 90/117/88 89/118/87 105/119/103 106/120/104 
f 92/121/90 91/122/89 107/123/105 108/124/106 
f 91/125/89 78/93/76 94/96/92 107/126/105 
f 85/110/83 92/121/90 108/124/106 101/111/99 
f 89/118/87 86/109/84 102/112/100 105/119/103 
f 87/114/85 90/117/88 106/120/104 103/115/101 
f 83/106/81 88/113/86 104/116/102 99/107/97 
f 79/98/77 84/105/82 100/108/98 95/99/93 
f 81/102/79 80/97/78 96/100/94 97/103/95 
f 77/94/75 82/101/80 98/104/96 93/95/91 
f 5/5/5 1/1/1 4/4/4 57/57/55 
f 11/11/11 10/10/10 14/14/14 109/127/107 
f 109/127/107 14/14/14 27/27/26 110/128/108 
f 44/44/42 43/43/41 32/32/31 58/58/56 
f 111/129/109 42/42/40 40/40/38 39/39/37 
f 110/128/108 27/27/26 42/42/40 111/129/109 
f 112/130/110 113/131/111 114/132/112 115/133/113 
f 115/134/113 6/6/6 5/5/5 112/135/110 
f 115/133/113 114/132/112 116/136/114 117/137/115 
f 118/138/116 12/139/12 11/140/11 119/141/117 
f 120/142/118 118/138/116 119/141/117 121/143/119 
f 122/144/120 18/145/18 17/146/17 123/147/121 
f 124/148/122 122/144/120 123/147/121 125/149/123 
f 125/149/123 126/150/124 127/151/125 
f 124/148/122 128/152/126 129/153/127 
f 123/147/121 17/146/17 12/139/12 118/138/116 
f 125/149/123 123/147/121 118/138/116 120/142/118 
f 125/149/123 127/151/125 130/154/128 
f 117/155/115 26/26/6 6/6/6 115/134/113 
f 131/156/129 132/157/130 120/142/118 121/143/119 
f 132/157/130 133/158/131 134/159/132 120/142/118 
f 135/160/133 136/161/134 137/162/135 138/163/136 
f 136/164/134 135/165/133 36/36/34 35/35/6 
f 136/161/134 117/137/115 116/136/114 137/162/135 
f 139/166/137 140/167/138 39/168/37 38/169/36 
f 141/170/139 142/171/140 140/167/138 139/166/137 
f 143/172/141 144/173/142 45/174/43 44/175/42 
f 145/176/143 146/177/144 144/173/142 143/172/141 
f 141/170/139 146/177/144 147/178/145 148/179/146 
f 149/180/147 150/181/148 151/182/149 
f 144/173/142 139/166/137 38/169/36 45/174/43 
f 146/177/144 141/170/139 139/166/137 144/173/142 
f 146/177/144 145/176/143 152/183/150 153/184/151 
f 117/155/115 136/164/134 35/35/6 26/26/6 
f 131/156/129 142/171/140 141/170/139 132/157/130 
f 132/157/130 141/170/139 148/179/146 154/185/152 
f 114/132/112 113/131/111 122/144/120 124/148/122 
f 116/136/114 114/132/112 124/148/122 150/181/148 
f 138/163/136 137/162/135 145/176/143 143/172/141 
f 137/162/135 116/136/114 150/181/148 145/176/143 
f 113/131/111 57/186/55 18/145/18 122/144/120 
f 138/163/136 58/187/56 36/188/34 135/160/133 
f 155/189/153 156/190/154 157/191/155 133/158/131 
f 127/151/125 158/192/156 159/193/157 130/154/128 
f 134/159/132 160/194/158 161/195/159 126/150/124 
f 128/152/126 162/196/160 163/197/161 129/153/127 
f 164/198/162 165/199/163 166/200/164 147/178/145 
f 151/182/149 167/201/165 168/202/166 149/180/147 
f 152/183/150 169/203/167 170/204/168 153/184/151 
f 148/179/146 171/205/169 172/206/170 154/185/152 
f 133/158/131 157/191/155 160/194/158 134/159/132 
f 154/185/152 172/206/170 156/190/154 155/189/153 
f 147/178/145 166/200/164 171/205/169 148/179/146 
f 153/184/151 170/204/168 165/199/163 164/198/162 
f 149/180/147 168/202/166 169/203/167 152/183/150 
f 129/153/127 163/197/161 167/201/165 151/182/149 
f 130/154/128 159/193/157 162/196/160 128/152/126 
f 126/150/124 161/195/159 158/192/156 127/151/125 
f 133/158/131 132/157/130 155/189/153 
f 132/157/130 154/185/152 155/189/153 
f 126/150/124 125/149/123 120/142/118 134/159/132 
f 125/149/123 130/154/128 128/152/126 124/148/122 
f 150/181/148 129/153/127 151/182/149 
f 129/153/127 150/181/148 124/148/122 
f 145/176/143 149/180/147 152/183/150 
f 149/180/147 145/176/143 150/181/148 
f 147/178/145 146/177/144 164/198/162 
f 146/177/144 153/184/151 164/198/162 
f 157/191/155 173/207/171 174/208/172 160/194/158 
f 159/193/157 175/209/173 176/210/174 162/196/160 
f 161/195/159 177/211/175 178/212/176 158/192/156 
f 163/197/161 179/213/177 180/214/178 167/201/165 
f 166/200/164 181/215/179 182/216/180 171/205/169 
f 168/202/166 183/217/181 184/218/182 169/203/167 
f 170/204/168 185/219/183 186/220/184 165/199/163 
f 172/206/170 187/221/185 188/222/186 156/190/154 
f 156/190/154 188/222/186 173/207/171 157/191/155 
f 171/205/169 182/216/180 187/221/185 172/206/170 
f 165/199/163 186/220/184 181/215/179 166/200/164 
f 169/203/167 184/218/182 185/219/183 170/204/168 
f 167/201/165 180/214/178 183/217/181 168/202/166 
f 162/196/160 176/210/174 179/213/177 163/197/161 
f 158/192/156 178/212/176 175/209/173 159/193/157 
f 160/194/158 174/208/172 177/211/175 161/195/159 
f 173/223/171 94/96/92 93/95/91 174/224/172 
f 175/225/173 96/100/94 95/99/93 176/226/174 
f 177/227/175 98/104/96 97/103/95 178/228/176 
f 179/229/177 100/108/98 99/107/97 180/230/178 
f 181/231/179 102/112/100 101/111/99 182/232/180 
f 183/233/181 104/116/102 103/115/101 184/234/182 
f 185/235/183 106/120/104 105/119/103 186/236/184 
f 187/237/185 108/124/106 107/123/105 188/238/186 
f 188/239/186 107/126/105 94/96/92 173/223/171 
f 182/232/180 101/111/99 108/124/106 187/237/185 
f 186/236/184 105/119/103 102/112/100 181/231/179 
f 184/234/182 103/115/101 106/120/104 185/235/183 
f 180/230/178 99/107/97 104/116/102 183/233/181 
f 176/226/174 95/99/93 100/108/98 179/229/177 
f 178/228/176 97/103/95 96/100/94 175/225/173 
f 174/224/172 93/95/91 98/104/96 177/227/175 
f 5/240/5 57/186/55 113/131/111 112/130/110 
f 11/140/11 109/241/107 121/143/119 119/141/117 
f 109/241/107 110/242/108 131/156/129 121/143/119 
f 44/175/42 58/187/56 138/163/136 143/172/141 
f 111/243/109 39/168/37 140/167/138 142/171/140 
f 110/242/108 111/243/109 142/171/140 131/156/129 
# 176 polygons - 24 triangles

