# 3ds Max Wavefront OBJ Exporter v0.97b - (c)2007 guruware
# File Created: 17.05.2017 16:48:35

mtllib SM_monolithe.mtl

#
# object Box007
#

v  -31.2638 -210.5580 -82.1871
v  -40.4317 -210.5580 -62.8348
v  -49.0962 -110.1409 -56.5589
v  -32.8567 -125.5718 -86.6636
v  -0.0000 -210.5580 -95.7768
v  -0.0000 -210.5580 -62.8348
v  -51.1815 -210.5580 -12.8027
v  -59.2583 -111.4448 -7.8636
v  -21.0134 65.8598 -60.2101
v  -20.4089 118.4048 -52.1449
v  -0.0000 118.4048 -62.3487
v  -0.0000 60.8011 -66.9350
v  -51.3336 101.4695 -31.1706
v  -31.2638 150.3789 -40.0460
v  -19.9501 -53.3690 -80.3477
v  -27.5722 36.4695 -67.2544
v  -0.0000 36.4695 -75.5120
v  -0.0000 -81.7811 -89.6125
v  -43.9310 -11.5072 -52.9137
v  -43.3174 36.4695 -54.6315
v  -51.3336 36.8958 -43.4717
v  -51.3336 52.4691 -36.8445
v  -51.3336 -1.1157 -15.2747
v  -51.3336 5.4996 -30.8201
v  -51.3336 21.1977 -37.1459
v  -0.0000 -210.5580 -1.5733
v  -31.2638 191.4686 0.2707
v  -51.3336 101.4695 0.2707
v  -51.3336 68.0423 -30.2173
v  -51.3336 74.1852 -14.9733
v  -31.2638 -210.5580 82.7285
v  -25.5222 -119.9581 87.3321
v  -49.0962 -109.0553 57.7505
v  -31.2638 -210.5580 63.3762
v  -0.0000 -210.5580 63.3762
v  -0.0000 -210.5580 96.3182
v  -31.2638 65.8598 60.7515
v  -0.0000 65.8598 68.1715
v  -0.0000 112.9187 64.0404
v  -31.2638 118.4048 52.6883
v  -51.3336 101.4695 31.7120
v  -31.2638 139.6362 40.5874
v  -31.2638 -39.4810 75.1663
v  -0.0000 -70.2196 90.0546
v  -0.0000 36.4695 76.2877
v  -31.2638 36.4695 67.7958
v  -43.9310 -11.5072 55.4492
v  -43.3174 36.4695 55.1729
v  -51.3336 68.0423 30.7587
v  -51.3336 52.4691 37.3859
v  -51.3336 -1.1157 15.8161
v  -51.3336 -7.7311 0.2707
v  -51.2775 -28.5304 0.2707
v  -51.3336 21.1977 37.6873
v  -51.3336 5.4996 31.3615
v  -51.3336 74.1852 15.5147
v  -0.0000 -137.9878 -97.0141
v  -0.0000 -131.4222 97.0141
v  -51.3336 80.3280 0.2707
v  -51.3336 72.7675 -14.3335
v  -51.3336 75.6172 0.5482
v  -51.3336 22.1805 -35.7121
v  -51.3336 37.0622 -38.5618
v  -51.3336 51.9017 -35.4997
v  -51.3336 64.4397 -26.9918
v  -51.3336 1.0144 -14.8462
v  -51.3336 9.5222 -27.3843
v  -51.3336 36.8958 44.0131
v  -51.3336 51.3889 36.2535
v  -51.3336 36.5072 39.1032
v  -51.3336 0.8020 14.8749
v  -51.3336 -2.0478 -0.0068
v  -51.3336 21.6678 36.0411
v  -51.3336 9.1298 27.5332
v  -51.3336 72.5551 15.3876
v  -51.3336 64.0472 27.9257
v  -51.3336 62.6856 -25.2626
v  -51.3336 70.4851 -13.4072
v  -51.3336 11.2515 -25.6301
v  -51.3336 23.1069 -33.4297
v  -51.3336 37.0446 -36.0987
v  -51.3336 50.9428 -33.2308
v  -51.3336 0.4153 0.0108
v  -51.3336 3.2832 -13.8874
v  -51.3336 62.3180 26.1715
v  -51.3336 50.4626 33.9711
v  -51.3336 10.8839 25.8040
v  -51.3336 3.0843 13.9485
v  -51.3336 36.5248 36.6401
v  -51.3336 22.6266 33.7722
v  -51.3336 73.1541 0.5306
v  -51.3336 70.2862 14.4288
v  -0.0000 62.6856 -25.2626
v  -0.0000 70.4851 -13.4072
v  -0.0000 11.2515 -25.6301
v  -0.0000 23.1069 -33.4297
v  -0.0000 37.0446 -36.0987
v  -0.0000 50.9428 -33.2308
v  -0.0000 0.4153 0.0108
v  -0.0000 3.2832 -13.8874
v  -0.0000 62.3180 26.1715
v  -0.0000 50.4626 33.9711
v  -0.0000 10.8839 25.8040
v  -0.0000 3.0843 13.9485
v  -0.0000 36.5248 36.6401
v  -0.0000 22.6266 33.7722
v  -0.0000 73.1541 0.5306
v  -0.0000 70.2862 14.4288
v  -0.0000 186.9668 -40.0460
v  -0.0000 210.5580 0.2707
v  -0.0000 170.9174 37.2394
v  31.2638 -210.5580 -82.1871
v  32.8567 -125.5718 -86.6636
v  49.0962 -110.1409 -56.5589
v  40.4317 -210.5580 -62.8348
v  59.2583 -111.4448 -7.8636
v  51.1815 -210.5580 -12.8027
v  21.0134 65.8598 -60.2101
v  20.4089 118.4048 -52.1449
v  51.3336 101.4695 -31.1706
v  31.2638 150.3789 -40.0460
v  19.9501 -53.3690 -80.3477
v  27.5722 36.4695 -67.2544
v  43.9310 -11.5072 -52.9137
v  43.3174 36.4695 -54.6315
v  51.3336 52.4691 -36.8445
v  51.3336 36.8958 -43.4717
v  51.3336 5.4996 -30.8201
v  51.3336 -1.1157 -15.2747
v  51.3336 21.1977 -37.1459
v  31.2638 191.4686 0.2707
v  51.3336 101.4695 0.2707
v  51.3336 74.1852 -14.9733
v  51.3336 68.0423 -30.2173
v  31.2638 -210.5580 82.7285
v  31.2638 -210.5580 63.3762
v  49.0962 -109.0553 57.7505
v  25.5222 -119.9581 87.3321
v  31.2638 65.8598 60.7515
v  31.2638 118.4048 52.6883
v  51.3336 101.4695 31.7120
v  31.2638 139.6362 40.5874
v  31.2638 -39.4810 75.1663
v  31.2638 36.4695 67.7958
v  43.9310 -11.5072 55.4492
v  43.3174 36.4695 55.1729
v  51.3336 52.4691 37.3859
v  51.3336 68.0423 30.7587
v  51.3336 -1.1157 15.8161
v  51.2775 -28.5304 0.2707
v  51.3336 -7.7311 0.2707
v  51.3336 5.4996 31.3615
v  51.3336 21.1977 37.6873
v  51.3336 74.1852 15.5147
v  51.3336 80.3280 0.2707
v  51.3336 75.6172 0.5482
v  51.3336 72.7675 -14.3335
v  51.3336 37.0622 -38.5618
v  51.3336 22.1805 -35.7121
v  51.3336 64.4397 -26.9918
v  51.3336 51.9017 -35.4997
v  51.3336 9.5222 -27.3843
v  51.3336 1.0144 -14.8462
v  51.3336 36.8958 44.0131
v  51.3336 36.5072 39.1032
v  51.3336 51.3889 36.2535
v  51.3336 -2.0478 -0.0068
v  51.3336 0.8020 14.8749
v  51.3336 9.1298 27.5332
v  51.3336 21.6678 36.0411
v  51.3336 64.0472 27.9257
v  51.3336 72.5551 15.3876
v  51.3336 70.4851 -13.4072
v  51.3336 62.6856 -25.2626
v  51.3336 23.1069 -33.4297
v  51.3336 11.2515 -25.6301
v  51.3336 50.9428 -33.2308
v  51.3336 37.0446 -36.0987
v  51.3336 3.2832 -13.8874
v  51.3336 0.4153 0.0108
v  51.3336 50.4626 33.9711
v  51.3336 62.3180 26.1715
v  51.3336 3.0843 13.9485
v  51.3336 10.8839 25.8040
v  51.3336 22.6266 33.7722
v  51.3336 36.5248 36.6401
v  51.3336 70.2862 14.4288
v  51.3336 73.1541 0.5306
# 188 vertices

vn -0.5286 -0.6548 -0.5402
vn -0.6711 -0.7040 -0.2324
vn -0.9385 0.0086 -0.3453
vn -0.6263 0.0543 -0.7777
vn 0.0000 -0.6338 -0.7735
vn 0.0000 -1.0000 -0.0000
vn -0.7251 -0.6886 0.0108
vn -0.9996 0.0077 -0.0279
vn -0.3701 0.2332 -0.8992
vn -0.4829 0.1518 -0.8624
vn 0.0000 0.1896 -0.9819
vn 0.0000 0.2312 -0.9729
vn -0.9093 0.1824 -0.3739
vn -0.6547 0.3224 -0.6837
vn -0.4416 0.1356 -0.8869
vn -0.4679 0.1930 -0.8625
vn 0.0000 0.2225 -0.9749
vn 0.0000 0.1282 -0.9918
vn -0.8991 -0.0117 -0.4376
vn -0.7404 0.0607 -0.6694
vn -0.9280 0.0086 -0.3725
vn -0.9443 0.1289 -0.3029
vn -0.9965 -0.0579 -0.0610
vn -0.9866 -0.1190 -0.1113
vn -0.9474 -0.1196 -0.2969
vn -0.7262 0.6855 0.0520
vn -0.9940 0.1095 -0.0000
vn -1.0000 -0.0000 0.0000
vn -0.6856 -0.5918 0.4240
vn -0.5584 0.0499 0.8281
vn -0.9190 -0.0325 0.3929
vn -0.6087 -0.7899 0.0745
vn 0.0000 -0.6307 0.7760
vn -0.4946 0.1760 0.8511
vn 0.0000 0.1799 0.9837
vn -0.0000 0.2323 0.9726
vn -0.7626 0.2325 0.6037
vn -0.9202 0.2278 0.3182
vn -0.6323 0.4245 0.6481
vn -0.6181 0.0671 0.7832
vn 0.0000 0.1168 0.9932
vn 0.0000 0.1953 0.9807
vn -0.5020 0.1421 0.8531
vn -0.9246 0.0024 0.3810
vn -0.7900 0.0585 0.6104
vn -1.0000 -0.0000 -0.0000
vn -0.9443 0.1289 0.3029
vn -0.9967 -0.0555 0.0586
vn -1.0000 -0.0017 -0.0000
vn -0.9994 0.0336 0.0033
vn -0.9474 -0.1196 0.2969
vn -0.9877 -0.1157 0.1049
vn 0.0000 0.0402 -0.9992
vn 0.0000 0.0364 0.9993
vn -1.0000 0.0000 0.0000
vn -0.9280 0.0086 0.3725
vn -1.0000 0.0000 -0.0000
vn -0.7538 -0.4679 0.4613
vn -0.7538 -0.6089 0.2471
vn -0.7538 0.4613 0.4680
vn -0.7538 0.2471 0.6089
vn -0.7538 -0.0047 0.6571
vn -0.7538 -0.2558 0.6053
vn -0.7538 0.6571 0.0047
vn -0.7538 0.6053 0.2558
vn -0.7538 -0.4613 -0.4680
vn -0.7538 -0.2471 -0.6089
vn -0.7538 0.4680 -0.4613
vn -0.7538 0.6089 -0.2471
vn -0.7538 0.0047 -0.6571
vn -0.7538 0.2558 -0.6053
vn -0.7538 -0.6571 -0.0047
vn -0.7538 -0.6053 -0.2558
vn 0.0000 -0.7121 0.7020
vn 0.0000 -0.9266 0.3761
vn 0.0000 0.7020 0.7121
vn 0.0000 0.3761 0.9266
vn 0.0000 -0.0071 1.0000
vn 0.0000 -0.3893 0.9211
vn 0.0000 1.0000 0.0071
vn 0.0000 0.9211 0.3893
vn 0.0000 -0.7020 -0.7121
vn 0.0000 -0.3761 -0.9266
vn 0.0000 0.7121 -0.7020
vn 0.0000 0.9266 -0.3761
vn 0.0000 0.0071 -1.0000
vn 0.0000 0.3893 -0.9211
vn 0.0000 -1.0000 -0.0071
vn 0.0000 -0.9211 -0.3893
vn -0.0000 0.7159 -0.6982
vn 0.0000 0.9925 0.1220
vn -0.0000 0.6100 0.7924
vn 0.5286 -0.6548 -0.5402
vn 0.6263 0.0543 -0.7777
vn 0.9385 0.0086 -0.3453
vn 0.6711 -0.7040 -0.2324
vn 0.9996 0.0077 -0.0279
vn 0.7251 -0.6886 0.0108
vn 0.3701 0.2332 -0.8992
vn 0.4829 0.1518 -0.8624
vn 0.9093 0.1824 -0.3739
vn 0.6547 0.3224 -0.6837
vn 0.4416 0.1356 -0.8869
vn 0.4679 0.1930 -0.8625
vn 0.8991 -0.0117 -0.4376
vn 0.7404 0.0607 -0.6694
vn 0.9443 0.1289 -0.3029
vn 0.9280 0.0086 -0.3725
vn 0.9866 -0.1190 -0.1113
vn 0.9965 -0.0579 -0.0610
vn 0.9474 -0.1196 -0.2969
vn 0.7262 0.6855 0.0520
vn 0.9940 0.1095 -0.0000
vn 1.0000 -0.0000 0.0000
vn 0.6856 -0.5918 0.4240
vn 0.6087 -0.7899 0.0745
vn 0.9190 -0.0325 0.3929
vn 0.5584 0.0499 0.8281
vn 0.4946 0.1760 0.8511
vn 0.7626 0.2325 0.6037
vn 0.9202 0.2278 0.3182
vn 0.6323 0.4245 0.6481
vn 0.6181 0.0671 0.7832
vn 0.5020 0.1421 0.8531
vn 0.9246 0.0024 0.3810
vn 0.7900 0.0585 0.6104
vn 0.9443 0.1289 0.3029
vn 1.0000 -0.0000 -0.0000
vn 0.9967 -0.0555 0.0586
vn 0.9994 0.0336 0.0033
vn 1.0000 -0.0017 -0.0000
vn 0.9877 -0.1157 0.1049
vn 0.9474 -0.1196 0.2969
vn 1.0000 0.0000 0.0000
vn 0.9280 0.0086 0.3725
vn 1.0000 0.0000 -0.0000
vn 0.7538 -0.6089 0.2471
vn 0.7538 -0.4679 0.4613
vn 0.7538 0.2471 0.6089
vn 0.7538 0.4613 0.4680
vn 0.7538 -0.2558 0.6053
vn 0.7538 -0.0047 0.6571
vn 0.7538 0.6053 0.2558
vn 0.7538 0.6571 0.0047
vn 0.7538 -0.2471 -0.6089
vn 0.7538 -0.4613 -0.4680
vn 0.7538 0.6089 -0.2471
vn 0.7538 0.4680 -0.4613
vn 0.7538 0.2558 -0.6053
vn 0.7538 0.0047 -0.6571
vn 0.7538 -0.6053 -0.2558
vn 0.7538 -0.6571 -0.0047
# 152 vertex normals

vt 0.0602 0.1391 0.0000
vt 0.1124 0.1386 0.0000
vt 0.1221 0.3193 0.0000
vt 0.0625 0.2915 0.0000
vt 0.0291 0.1044 0.0000
vt 0.1183 0.0698 0.0000
vt 0.2258 0.1387 0.0000
vt 0.2098 0.3171 0.0000
vt 0.0855 0.6428 0.0000
vt 0.1129 0.7362 0.0000
vt 0.0737 0.7475 0.0000
vt 0.0448 0.6423 0.0000
vt 0.1696 0.6934 0.0000
vt 0.1534 0.7856 0.0000
vt 0.0575 0.4232 0.0000
vt 0.0825 0.5858 0.0000
vt 0.0316 0.5922 0.0000
vt 0.0143 0.3752 0.0000
vt 0.1248 0.4971 0.0000
vt 0.1175 0.5823 0.0000
vt 0.1412 0.5820 0.0000
vt 0.1539 0.6085 0.0000
vt 0.1948 0.5161 0.0000
vt 0.1664 0.5280 0.0000
vt 0.1535 0.5551 0.0000
vt 0.2504 0.0698 0.0000
vt 0.2237 0.8540 0.0000
vt 0.2230 0.6911 0.0000
vt 0.1673 0.6347 0.0000
vt 0.1953 0.6433 0.0000
vt 0.3839 0.1391 0.0000
vt 0.3941 0.3020 0.0000
vt 0.3278 0.3220 0.0000
vt 0.3477 0.1384 0.0000
vt 0.3501 0.0698 0.0000
vt 0.4148 0.1043 0.0000
vt 0.3467 0.6380 0.0000
vt 0.4031 0.6512 0.0000
vt 0.3770 0.7395 0.0000
vt 0.3181 0.7294 0.0000
vt 0.2759 0.6926 0.0000
vt 0.2959 0.7664 0.0000
vt 0.3686 0.4472 0.0000
vt 0.4338 0.3950 0.0000
vt 0.4169 0.5918 0.0000
vt 0.3596 0.5846 0.0000
vt 0.3255 0.4969 0.0000
vt 0.3296 0.5822 0.0000
vt 0.2785 0.6340 0.0000
vt 0.2928 0.6081 0.0000
vt 0.2522 0.5161 0.0000
vt 0.2235 0.5046 0.0000
vt 0.2235 0.4669 0.0000
vt 0.2937 0.5549 0.0000
vt 0.2808 0.5277 0.0000
vt 0.2503 0.6426 0.0000
vt 0.0005 0.2719 0.0000
vt 0.4433 0.2826 0.0000
vt 0.2229 0.6535 0.0000
vt 0.1966 0.6409 0.0000
vt 0.2234 0.6451 0.0000
vt 0.1562 0.5563 0.0000
vt 0.1490 0.5820 0.0000
vt 0.1560 0.6076 0.0000
vt 0.1727 0.6284 0.0000
vt 0.1958 0.5200 0.0000
vt 0.1730 0.5352 0.0000
vt 0.3059 0.5819 0.0000
vt 0.2909 0.6064 0.0000
vt 0.2981 0.5809 0.0000
vt 0.2503 0.5197 0.0000
vt 0.2231 0.5150 0.0000
vt 0.2907 0.5552 0.0000
vt 0.2737 0.5341 0.0000
vt 0.2500 0.6397 0.0000
vt 0.2739 0.6270 0.0000
vt 0.1756 0.6251 0.0000
vt 0.1981 0.6367 0.0000
vt 0.1762 0.5384 0.0000
vt 0.1602 0.5581 0.0000
vt 0.1530 0.5820 0.0000
vt 0.1599 0.6057 0.0000
vt 0.2231 0.5195 0.0000
vt 0.1976 0.5241 0.0000
vt 0.2710 0.6237 0.0000
vt 0.2869 0.6044 0.0000
vt 0.2707 0.5373 0.0000
vt 0.2487 0.5238 0.0000
vt 0.2940 0.5808 0.0000
vt 0.2867 0.5571 0.0000
vt 0.2233 0.6407 0.0000
vt 0.2485 0.6356 0.0000
vt 0.4444 0.2192 0.0000
vt 0.4444 0.2025 0.0000
vt 0.4928 0.2025 0.0000
vt 0.4928 0.2192 0.0000
vt 0.4444 0.1601 0.0000
vt 0.4444 0.1460 0.0000
vt 0.4928 0.1460 0.0000
vt 0.4928 0.1601 0.0000
vt 0.4444 0.1884 0.0000
vt 0.4444 0.1742 0.0000
vt 0.4928 0.1742 0.0000
vt 0.4928 0.1884 0.0000
vt 0.4444 0.1319 0.0000
vt 0.4444 0.1177 0.0000
vt 0.4928 0.1177 0.0000
vt 0.4928 0.1319 0.0000
vt 0.4444 0.0471 0.0000
vt 0.4444 0.0330 0.0000
vt 0.4928 0.0330 0.0000
vt 0.4928 0.0471 0.0000
vt 0.4444 0.1036 0.0000
vt 0.4444 0.0895 0.0000
vt 0.4928 0.0895 0.0000
vt 0.4928 0.1036 0.0000
vt 0.4444 0.0754 0.0000
vt 0.4444 0.0612 0.0000
vt 0.4928 0.0612 0.0000
vt 0.4928 0.0754 0.0000
vt 0.4444 0.0189 0.0000
vt 0.4444 0.0053 0.0000
vt 0.4928 0.0053 0.0000
vt 0.4928 0.0189 0.0000
vt 0.4444 0.2351 0.0000
vt 0.4928 0.2351 0.0000
vt 0.1366 0.8691 0.0000
vt 0.2262 0.9135 0.0000
vt 0.3130 0.8439 0.0000
vt 0.9323 0.0013 0.0000
vt 0.9375 0.1542 0.0000
vt 0.8781 0.1828 0.0000
vt 0.8914 0.0007 0.0000
vt 0.1183 0.0005 0.0000
vt 0.0547 0.0005 0.0000
vt 0.7901 0.1816 0.0000
vt 0.7964 0.0021 0.0000
vt 0.9181 0.5071 0.0000
vt 0.9589 0.5061 0.0000
vt 0.9312 0.6121 0.0000
vt 0.8918 0.6013 0.0000
vt 0.8347 0.5592 0.0000
vt 0.8517 0.6514 0.0000
vt 0.9443 0.2864 0.0000
vt 0.9871 0.2377 0.0000
vt 0.9713 0.4556 0.0000
vt 0.9202 0.4498 0.0000
vt 0.8775 0.3611 0.0000
vt 0.8847 0.4466 0.0000
vt 0.8486 0.4736 0.0000
vt 0.8609 0.4468 0.0000
vt 0.8362 0.3923 0.0000
vt 0.8076 0.3810 0.0000
vt 0.8489 0.4195 0.0000
vt 0.2504 0.0005 0.0000
vt 0.7817 0.7207 0.0000
vt 0.7808 0.5573 0.0000
vt 0.8082 0.5093 0.0000
vt 0.8361 0.5004 0.0000
vt 0.6187 0.0050 0.0000
vt 0.6519 0.0033 0.0000
vt 0.6718 0.1879 0.0000
vt 0.6050 0.1687 0.0000
vt 0.3501 0.0005 0.0000
vt 0.3894 0.0005 0.0000
vt 0.6559 0.5053 0.0000
vt 0.6857 0.5967 0.0000
vt 0.6267 0.6074 0.0000
vt 0.5994 0.5192 0.0000
vt 0.7275 0.5592 0.0000
vt 0.7084 0.6335 0.0000
vt 0.6326 0.3139 0.0000
vt 0.6422 0.4518 0.0000
vt 0.5849 0.4596 0.0000
vt 0.5666 0.2623 0.0000
vt 0.6764 0.3633 0.0000
vt 0.6725 0.4488 0.0000
vt 0.7095 0.4749 0.0000
vt 0.7243 0.5006 0.0000
vt 0.7499 0.3819 0.0000
vt 0.7782 0.3322 0.0000
vt 0.7786 0.3702 0.0000
vt 0.7213 0.3939 0.0000
vt 0.7086 0.4213 0.0000
vt 0.7526 0.5091 0.0000
vt 0.9995 0.1337 0.0000
vt 0.5553 0.1498 0.0000
vt 0.5566 0.0054 0.0000
vt 0.7804 0.5195 0.0000
vt 0.7798 0.5110 0.0000
vt 0.8068 0.5070 0.0000
vt 0.8528 0.4469 0.0000
vt 0.8464 0.4209 0.0000
vt 0.8305 0.4941 0.0000
vt 0.8464 0.4727 0.0000
vt 0.8300 0.3993 0.0000
vt 0.8066 0.3849 0.0000
vt 0.6967 0.4484 0.0000
vt 0.7051 0.4475 0.0000
vt 0.7112 0.4733 0.0000
vt 0.7792 0.3810 0.0000
vt 0.7518 0.3854 0.0000
vt 0.7282 0.3999 0.0000
vt 0.7118 0.4216 0.0000
vt 0.7289 0.4935 0.0000
vt 0.7529 0.5063 0.0000
vt 0.8053 0.5029 0.0000
vt 0.8275 0.4909 0.0000
vt 0.8424 0.4226 0.0000
vt 0.8269 0.4025 0.0000
vt 0.8425 0.4709 0.0000
vt 0.8485 0.4468 0.0000
vt 0.8050 0.3891 0.0000
vt 0.7792 0.3856 0.0000
vt 0.7151 0.4715 0.0000
vt 0.7318 0.4902 0.0000
vt 0.7534 0.3896 0.0000
vt 0.7312 0.4029 0.0000
vt 0.7158 0.4233 0.0000
vt 0.7094 0.4474 0.0000
vt 0.7544 0.5022 0.0000
vt 0.7798 0.5065 0.0000
vt 0.5469 0.2192 0.0000
vt 0.5469 0.2025 0.0000
vt 0.5469 0.1601 0.0000
vt 0.5469 0.1460 0.0000
vt 0.5469 0.1884 0.0000
vt 0.5469 0.1742 0.0000
vt 0.5469 0.1319 0.0000
vt 0.5469 0.1177 0.0000
vt 0.5469 0.0471 0.0000
vt 0.5469 0.0330 0.0000
vt 0.5469 0.1036 0.0000
vt 0.5469 0.0895 0.0000
vt 0.5469 0.0754 0.0000
vt 0.5469 0.0612 0.0000
vt 0.5469 0.0189 0.0000
vt 0.5469 0.0053 0.0000
vt 0.5469 0.2351 0.0000
vt 0.9948 0.0005 0.0000
vt 0.8695 0.7350 0.0000
vt 0.7799 0.7804 0.0000
vt 0.6920 0.7115 0.0000
# 243 texture coords

o Box007
g Box007
usemtl wire_184155229
s 1
f 1/1/1 2/2/2 3/3/3 4/4/4 
f 2/2/2 1/1/1 5/5/5 6/6/6 
f 2/2/2 7/7/7 8/8/8 3/3/3 
f 9/9/9 10/10/10 11/11/11 12/12/12 
f 13/13/13 14/14/14 10/10/10 9/9/9 
f 15/15/15 16/16/16 17/17/17 18/18/18 
f 19/19/19 20/20/20 16/16/16 15/15/15 
f 20/20/20 21/21/21 22/22/22 
f 19/19/19 23/23/23 24/24/24 
f 16/16/16 9/9/9 12/12/12 17/17/17 
f 20/20/20 13/13/13 9/9/9 16/16/16 
f 20/20/20 25/25/25 21/21/21 
f 7/7/7 2/2/2 6/6/6 26/26/6 
f 27/27/26 14/14/14 13/13/13 28/28/27 
f 28/28/27 13/13/13 29/29/28 30/30/28 
f 31/31/29 32/32/30 33/33/31 34/34/32 
f 34/34/32 35/35/6 36/36/33 31/31/29 
f 34/34/32 33/33/31 8/8/8 7/7/7 
f 37/37/34 38/38/35 39/39/36 40/40/37 
f 41/41/38 37/37/34 40/40/37 42/42/39 
f 43/43/40 44/44/41 45/45/42 46/46/43 
f 47/47/44 43/43/40 46/46/43 48/48/45 
f 41/41/38 49/49/46 50/50/47 48/48/45 
f 51/51/48 52/52/49 53/53/50 
f 46/46/43 45/45/42 38/38/35 37/37/34 
f 48/48/45 46/46/43 37/37/34 41/41/38 
f 48/48/45 54/54/51 55/55/52 47/47/44 
f 7/7/7 26/26/6 35/35/6 34/34/32 
f 27/27/26 28/28/27 41/41/38 42/42/39 
f 28/28/27 56/56/46 49/49/46 41/41/38 
f 3/3/3 19/19/19 15/15/15 4/4/4 
f 8/8/8 53/53/50 19/19/19 3/3/3 
f 32/32/30 43/43/40 47/47/44 33/33/31 
f 33/33/31 47/47/44 53/53/50 8/8/8 
f 4/4/4 15/15/15 18/18/18 57/57/53 
f 32/32/30 31/31/29 36/36/33 58/58/54 
f 59/59/28 30/30/28 60/60/28 61/61/46 
f 21/21/21 25/25/25 62/62/55 63/63/28 
f 29/29/28 22/22/22 64/64/28 65/65/28 
f 24/24/24 23/23/23 66/66/55 67/67/55 
f 68/68/56 50/50/47 69/69/46 70/70/57 
f 52/52/49 51/51/48 71/71/57 72/72/55 
f 55/55/52 54/54/51 73/73/57 74/74/57 
f 49/49/46 56/56/46 75/75/46 76/76/46 
f 30/30/28 29/29/28 65/65/28 60/60/28 
f 56/56/46 59/59/28 61/61/46 75/75/46 
f 50/50/47 49/49/46 76/76/46 69/69/46 
f 54/54/51 68/68/56 70/70/57 73/73/57 
f 51/51/48 55/55/52 74/74/57 71/71/57 
f 23/23/23 52/52/49 72/72/55 66/66/55 
f 25/25/25 24/24/24 67/67/55 62/62/55 
f 22/22/22 21/21/21 63/63/28 64/64/28 
f 30/30/28 59/59/28 28/28/27 
f 28/28/27 59/59/28 56/56/46 
f 22/22/22 29/29/28 13/13/13 20/20/20 
f 20/20/20 19/19/19 24/24/24 25/25/25 
f 53/53/50 52/52/49 23/23/23 
f 23/23/23 19/19/19 53/53/50 
f 47/47/44 55/55/52 51/51/48 
f 51/51/48 53/53/50 47/47/44 
f 50/50/47 68/68/56 48/48/45 
f 48/48/45 68/68/56 54/54/51 
f 60/60/28 65/65/28 77/77/58 78/78/59 
f 62/62/55 67/67/55 79/79/60 80/80/61 
f 64/64/28 63/63/28 81/81/62 82/82/63 
f 66/66/55 72/72/55 83/83/64 84/84/65 
f 69/69/46 76/76/46 85/85/66 86/86/67 
f 71/71/57 74/74/57 87/87/68 88/88/69 
f 73/73/57 70/70/57 89/89/70 90/90/71 
f 75/75/46 61/61/46 91/91/72 92/92/73 
f 61/61/46 60/60/28 78/78/59 91/91/72 
f 76/76/46 75/75/46 92/92/73 85/85/66 
f 70/70/57 69/69/46 86/86/67 89/89/70 
f 74/74/57 73/73/57 90/90/71 87/87/68 
f 72/72/55 71/71/57 88/88/69 83/83/64 
f 67/67/55 66/66/55 84/84/65 79/79/60 
f 63/63/28 62/62/55 80/80/61 81/81/62 
f 65/65/28 64/64/28 82/82/63 77/77/58 
f 78/93/59 77/94/58 93/95/74 94/96/75 
f 80/97/61 79/98/60 95/99/76 96/100/77 
f 82/101/63 81/102/62 97/103/78 98/104/79 
f 84/105/65 83/106/64 99/107/80 100/108/81 
f 86/109/67 85/110/66 101/111/82 102/112/83 
f 88/113/69 87/114/68 103/115/84 104/116/85 
f 90/117/71 89/118/70 105/119/86 106/120/87 
f 92/121/73 91/122/72 107/123/88 108/124/89 
f 91/125/72 78/93/59 94/96/75 107/126/88 
f 85/110/66 92/121/73 108/124/89 101/111/82 
f 89/118/70 86/109/67 102/112/83 105/119/86 
f 87/114/68 90/117/71 106/120/87 103/115/84 
f 83/106/64 88/113/69 104/116/85 99/107/80 
f 79/98/60 84/105/65 100/108/81 95/99/76 
f 81/102/62 80/97/61 96/100/77 97/103/78 
f 77/94/58 82/101/63 98/104/79 93/95/74 
f 5/5/5 1/1/1 4/4/4 57/57/53 
f 11/11/11 10/10/10 14/14/14 109/127/90 
f 109/127/90 14/14/14 27/27/26 110/128/91 
f 44/44/41 43/43/40 32/32/30 58/58/54 
f 111/129/92 42/42/39 40/40/37 39/39/36 
f 110/128/91 27/27/26 42/42/39 111/129/92 
f 112/130/93 113/131/94 114/132/95 115/133/96 
f 115/134/96 6/6/6 5/5/5 112/135/93 
f 115/133/96 114/132/95 116/136/97 117/137/98 
f 118/138/99 12/139/12 11/140/11 119/141/100 
f 120/142/101 118/138/99 119/141/100 121/143/102 
f 122/144/103 18/145/18 17/146/17 123/147/104 
f 124/148/105 122/144/103 123/147/104 125/149/106 
f 125/149/106 126/150/107 127/151/108 
f 124/148/105 128/152/109 129/153/110 
f 123/147/104 17/146/17 12/139/12 118/138/99 
f 125/149/106 123/147/104 118/138/99 120/142/101 
f 125/149/106 127/151/108 130/154/111 
f 117/155/98 26/26/6 6/6/6 115/134/96 
f 131/156/112 132/157/113 120/142/101 121/143/102 
f 132/157/113 133/158/114 134/159/114 120/142/101 
f 135/160/115 136/161/116 137/162/117 138/163/118 
f 136/164/116 135/165/115 36/36/33 35/35/6 
f 136/161/116 117/137/98 116/136/97 137/162/117 
f 139/166/119 140/167/120 39/168/36 38/169/35 
f 141/170/121 142/171/122 140/167/120 139/166/119 
f 143/172/123 144/173/124 45/174/42 44/175/41 
f 145/176/125 146/177/126 144/173/124 143/172/123 
f 141/170/121 146/177/126 147/178/127 148/179/128 
f 149/180/129 150/181/130 151/182/131 
f 144/173/124 139/166/119 38/169/35 45/174/42 
f 146/177/126 141/170/121 139/166/119 144/173/124 
f 146/177/126 145/176/125 152/183/132 153/184/133 
f 117/155/98 136/164/116 35/35/6 26/26/6 
f 131/156/112 142/171/122 141/170/121 132/157/113 
f 132/157/113 141/170/121 148/179/128 154/185/128 
f 114/132/95 113/131/94 122/144/103 124/148/105 
f 116/136/97 114/132/95 124/148/105 150/181/130 
f 138/163/118 137/162/117 145/176/125 143/172/123 
f 137/162/117 116/136/97 150/181/130 145/176/125 
f 113/131/94 57/186/53 18/145/18 122/144/103 
f 138/163/118 58/187/54 36/188/33 135/160/115 
f 155/189/114 156/190/128 157/191/114 133/158/114 
f 127/151/108 158/192/114 159/193/134 130/154/111 
f 134/159/114 160/194/114 161/195/114 126/150/107 
f 128/152/109 162/196/134 163/197/134 129/153/110 
f 164/198/135 165/199/136 166/200/128 147/178/127 
f 151/182/131 167/201/134 168/202/136 149/180/129 
f 152/183/132 169/203/136 170/204/136 153/184/133 
f 148/179/128 171/205/128 172/206/128 154/185/128 
f 133/158/114 157/191/114 160/194/114 134/159/114 
f 154/185/128 172/206/128 156/190/128 155/189/114 
f 147/178/127 166/200/128 171/205/128 148/179/128 
f 153/184/133 170/204/136 165/199/136 164/198/135 
f 149/180/129 168/202/136 169/203/136 152/183/132 
f 129/153/110 163/197/134 167/201/134 151/182/131 
f 130/154/111 159/193/134 162/196/134 128/152/109 
f 126/150/107 161/195/114 158/192/114 127/151/108 
f 133/158/114 132/157/113 155/189/114 
f 132/157/113 154/185/128 155/189/114 
f 126/150/107 125/149/106 120/142/101 134/159/114 
f 125/149/106 130/154/111 128/152/109 124/148/105 
f 150/181/130 129/153/110 151/182/131 
f 129/153/110 150/181/130 124/148/105 
f 145/176/125 149/180/129 152/183/132 
f 149/180/129 145/176/125 150/181/130 
f 147/178/127 146/177/126 164/198/135 
f 146/177/126 153/184/133 164/198/135 
f 157/191/114 173/207/137 174/208/138 160/194/114 
f 159/193/134 175/209/139 176/210/140 162/196/134 
f 161/195/114 177/211/141 178/212/142 158/192/114 
f 163/197/134 179/213/143 180/214/144 167/201/134 
f 166/200/128 181/215/145 182/216/146 171/205/128 
f 168/202/136 183/217/147 184/218/148 169/203/136 
f 170/204/136 185/219/149 186/220/150 165/199/136 
f 172/206/128 187/221/151 188/222/152 156/190/128 
f 156/190/128 188/222/152 173/207/137 157/191/114 
f 171/205/128 182/216/146 187/221/151 172/206/128 
f 165/199/136 186/220/150 181/215/145 166/200/128 
f 169/203/136 184/218/148 185/219/149 170/204/136 
f 167/201/134 180/214/144 183/217/147 168/202/136 
f 162/196/134 176/210/140 179/213/143 163/197/134 
f 158/192/114 178/212/142 175/209/139 159/193/134 
f 160/194/114 174/208/138 177/211/141 161/195/114 
f 173/223/137 94/96/75 93/95/74 174/224/138 
f 175/225/139 96/100/77 95/99/76 176/226/140 
f 177/227/141 98/104/79 97/103/78 178/228/142 
f 179/229/143 100/108/81 99/107/80 180/230/144 
f 181/231/145 102/112/83 101/111/82 182/232/146 
f 183/233/147 104/116/85 103/115/84 184/234/148 
f 185/235/149 106/120/87 105/119/86 186/236/150 
f 187/237/151 108/124/89 107/123/88 188/238/152 
f 188/239/152 107/126/88 94/96/75 173/223/137 
f 182/232/146 101/111/82 108/124/89 187/237/151 
f 186/236/150 105/119/86 102/112/83 181/231/145 
f 184/234/148 103/115/84 106/120/87 185/235/149 
f 180/230/144 99/107/80 104/116/85 183/233/147 
f 176/226/140 95/99/76 100/108/81 179/229/143 
f 178/228/142 97/103/78 96/100/77 175/225/139 
f 174/224/138 93/95/74 98/104/79 177/227/141 
f 5/240/5 57/186/53 113/131/94 112/130/93 
f 11/140/11 109/241/90 121/143/102 119/141/100 
f 109/241/90 110/242/91 131/156/112 121/143/102 
f 44/175/41 58/187/54 138/163/118 143/172/123 
f 111/243/92 39/168/36 140/167/120 142/171/122 
f 110/242/91 111/243/92 142/171/122 131/156/112 
# 176 polygons - 24 triangles

