# 3ds Max Wavefront OBJ Exporter v0.97b - (c)2007 guruware
# File Created: 17.05.2017 17:36:35

mtllib SM_porte.mtl

#
# object bloc
#

v  -290.1909 248.5385 48.3323
v  -253.7105 275.0952 59.9203
v  -253.7105 275.0952 -17.6442
v  -312.7341 263.2238 -0.0000
v  -303.2880 0.0000 59.9203
v  -253.7105 0.0000 59.9203
v  -253.7105 131.7951 59.9203
v  -290.4157 122.2142 54.0904
v  193.0609 1.6816 69.4339
v  212.1308 0.0000 -0.0000
v  210.3004 161.3774 -0.0000
v  198.4626 161.6203 55.5826
v  -175.0311 330.7220 59.9203
v  -141.0082 327.8905 59.9203
v  -154.1768 344.6431 11.1728
v  -188.1998 347.5092 11.1728
v  -175.0311 0.0000 59.9203
v  -150.2981 0.0000 59.9203
v  -153.0161 101.5194 50.7500
v  -172.7541 102.5912 59.9203
v  106.5106 297.9828 59.9203
v  124.9007 281.0486 59.9203
v  122.9735 289.9753 -0.0000
v  106.5106 314.4320 -0.0000
v  106.5106 0.0000 59.9203
v  116.0195 0.0000 59.9203
v  112.2153 164.3655 59.9203
v  102.7064 174.1805 59.9203
v  187.3964 269.2503 46.2614
v  194.8606 275.1313 -0.0000
v  -78.6426 331.7639 59.9203
v  -78.6426 330.5926 -0.0000
v  72.9040 301.8699 59.9203
v  72.9040 319.6575 -8.6126
v  82.1939 0.0000 59.9203
v  77.2053 161.5327 59.9203
v  -253.7105 234.0811 59.9203
v  -280.2057 217.0645 51.4558
v  -317.8938 217.0645 -0.0000
v  -150.2708 247.9789 59.9203
v  -141.0082 262.5461 59.9203
v  -175.0311 249.8826 59.9203
v  116.0195 246.7427 59.9203
v  106.5106 261.4770 59.9203
v  190.2209 241.7789 48.6405
v  72.9040 246.3145 59.9203
v  9.1109 323.1899 59.9203
v  9.1109 303.0668 59.9203
v  80.4159 242.4903 59.9203
v  9.1109 320.0841 -0.0000
v  -78.6426 306.6163 59.9203
v  -336.1928 0.0000 -0.0000
v  -325.8899 122.2142 -0.0000
v  204.4796 242.2571 -0.0000
v  -310.5627 255.0970 -46.2848
v  -253.7105 275.0952 -52.3239
v  -300.7367 0.0000 -59.9203
v  -304.1799 122.2142 -59.9203
v  -253.7105 131.7951 -59.9203
v  -253.7105 0.0000 -59.9203
v  181.5163 2.8706 -34.8212
v  181.0742 161.7963 -42.0592
v  -175.0311 330.7220 -59.9203
v  -141.0082 327.8905 -59.9203
v  -175.0311 0.0000 -73.7595
v  -172.7541 102.5912 -65.9676
v  -154.6204 101.5194 -59.9203
v  -154.8266 0.0000 -59.9203
v  106.5106 307.2912 -59.9203
v  116.0195 289.9753 -59.9203
v  106.5106 0.0000 -59.9203
v  110.7373 164.4689 -59.9203
v  126.4236 164.3655 -59.9203
v  134.1032 0.0000 -59.9203
v  185.6703 270.0362 -41.8251
v  -78.6426 333.1012 -59.9203
v  72.9040 310.0880 -59.9203
v  82.1939 0.0000 -64.7428
v  86.4519 161.5327 -59.9203
v  -253.7105 234.0811 -59.9203
v  -310.5627 217.0645 -49.8021
v  -141.0082 256.5566 -59.9203
v  -150.2708 247.9789 -59.9203
v  -175.0311 249.8826 -59.9203
v  116.0195 246.7427 -59.9203
v  106.5106 261.4770 -59.9203
v  188.9106 241.4473 -45.6868
v  72.9040 246.3145 -59.9203
v  9.1109 303.0668 -59.9203
v  9.1109 328.6191 -59.9203
v  80.4159 242.4903 -59.9203
v  -78.6426 306.6163 -59.9203
v  -141.0082 0.0000 -50.6303
v  -138.7311 94.0060 -50.6303
v  -128.0443 93.9780 -3.0592
v  -130.3132 0.0000 0.9235
v  -141.0082 234.6344 -50.6303
v  -78.6426 297.3264 -50.6303
v  -78.6426 288.0105 0.9235
v  -130.3277 234.5846 -6.1502
v  9.1109 293.7769 -50.6303
v  9.1109 294.9576 0.9235
v  72.9040 237.0245 -50.6303
v  61.7441 237.0245 0.9235
v  69.0997 157.8918 -50.6303
v  57.4369 157.8918 0.9235
v  -141.0082 247.2667 36.7364
v  68.3627 237.0245 50.6303
v  -141.0082 0.0000 27.3245
v  -138.7311 101.1184 40.4322
v  67.8213 157.8918 44.0194
v  9.1109 296.0961 50.6303
v  -78.6426 293.7558 50.6303
v  72.9040 0.0000 -50.6303
v  60.2374 0.0000 0.9235
v  66.9428 0.0000 42.6090
# 116 vertices

vn -0.7192 0.1440 0.6797
vn -0.4524 0.5381 0.7112
vn -0.4942 0.8693 -0.0000
vn -0.7117 0.6792 0.1794
vn -0.5243 0.0956 0.8461
vn 0.0000 0.0000 1.0000
vn -0.0787 -0.0000 0.9969
vn -0.5475 0.0908 0.8319
vn 0.5296 0.0554 0.8464
vn 0.9761 0.0111 -0.2171
vn 0.9798 0.0404 -0.1958
vn 0.6627 0.0851 0.7440
vn -0.1434 0.6196 0.7717
vn -0.0005 0.5625 0.8268
vn 0.1287 0.9903 0.0521
vn -0.4018 0.9114 0.0885
vn 0.5905 0.0883 0.8022
vn 0.5071 0.0146 0.8617
vn 0.2182 -0.0006 0.9759
vn 0.2986 0.6134 0.7311
vn 0.3292 0.4796 0.8134
vn 0.5586 0.8292 0.0205
vn 0.5029 0.8605 0.0811
vn -0.0618 -0.0014 0.9981
vn 0.0246 -0.0003 0.9997
vn 0.6170 0.5401 0.5724
vn 0.6895 0.7241 -0.0166
vn 0.0129 0.7307 0.6825
vn 0.1518 0.9883 0.0124
vn 0.1256 0.5740 0.8092
vn 0.0806 0.9967 0.0086
vn -0.4049 -0.0125 0.9143
vn -0.5048 0.0045 0.8632
vn -0.1540 0.0000 0.9881
vn -0.5641 0.0064 0.8257
vn -0.9664 0.0944 0.2391
vn 0.4609 -0.1610 0.8727
vn 0.3340 -0.3494 0.8754
vn 0.0697 -0.0102 0.9975
vn 0.6538 0.1318 0.7451
vn -0.2205 -0.3164 0.9226
vn 0.1553 0.7314 0.6640
vn -0.1255 -0.3520 0.9275
vn -0.1720 -0.0961 0.9804
vn 0.0651 0.9971 0.0404
vn 0.0625 -0.2456 0.9673
vn -0.9963 0.0840 -0.0156
vn -0.9897 0.0834 0.1159
vn 0.9844 0.1746 -0.0215
vn -0.6856 0.4398 -0.5801
vn -0.4119 0.6496 -0.6390
vn -0.4885 -0.0138 -0.8724
vn -0.5645 0.0140 -0.8253
vn -0.0373 -0.0000 -0.9993
vn -0.0869 0.0000 -0.9962
vn 0.6224 -0.0339 -0.7820
vn 0.5877 -0.0649 -0.8065
vn -0.1808 0.6501 -0.7381
vn -0.0057 0.5990 -0.8007
vn 0.2025 0.0697 -0.9768
vn 0.1383 0.0592 -0.9886
vn 0.4101 -0.0073 -0.9120
vn 0.5615 -0.0011 -0.8275
vn 0.4261 0.6280 -0.6512
vn 0.4180 0.3889 -0.8210
vn 0.0993 -0.0026 -0.9951
vn 0.0000 0.0000 -1.0000
vn 0.1617 0.0145 -0.9867
vn 0.2431 0.0114 -0.9699
vn 0.6363 0.5267 -0.5637
vn -0.0119 0.7358 -0.6771
vn 0.1106 0.6048 -0.7886
vn -0.3899 0.0377 -0.9201
vn -0.2373 0.0076 -0.9714
vn -0.1102 0.0926 -0.9896
vn -0.7341 0.0415 -0.6778
vn 0.1571 -0.1875 -0.9696
vn 0.1845 -0.1042 -0.9773
vn -0.0011 0.0187 -0.9998
vn 0.0928 0.0054 -0.9957
vn 0.6629 0.0327 -0.7480
vn -0.2726 -0.3700 -0.8881
vn -0.1051 -0.3006 -0.9479
vn 0.1277 0.7662 -0.6298
vn -0.2215 -0.1496 -0.9636
vn 0.0852 -0.2993 -0.9503
vn 0.8280 -0.0201 -0.5604
vn 0.8085 -0.0046 -0.5885
vn 1.0000 -0.0046 0.0083
vn 0.9950 -0.0199 0.0982
vn 0.7812 -0.2390 -0.5767
vn 0.3526 -0.8120 -0.4651
vn 0.4403 -0.8975 -0.0256
vn 0.9325 -0.3586 0.0439
vn -0.3765 -0.8463 -0.3768
vn -0.3682 -0.9295 0.0213
vn -0.8127 -0.3312 -0.4794
vn -0.9363 -0.3489 -0.0394
vn -0.7992 0.0085 -0.6010
vn -0.9998 0.0182 0.0069
vn 0.8126 -0.4260 0.3978
vn -0.7526 -0.3598 0.5516
vn 0.9424 -0.0638 0.3283
vn 0.8217 -0.0313 0.5691
vn -0.9275 -0.0103 0.3737
vn -0.3791 -0.8660 0.3260
vn 0.2315 -0.8024 0.5501
vn -0.9159 -0.0221 -0.4009
vn -0.9990 -0.0177 -0.0408
vn -0.9052 0.0012 0.4250
# 110 vertex normals

vt 0.0005 0.7061 0.0000
vt 0.0005 0.6575 0.0000
vt 0.0677 0.6575 0.0000
vt 0.0677 0.7061 0.0000
vt 0.2738 0.5764 0.0000
vt 0.3363 0.5721 0.0000
vt 0.3491 0.7388 0.0000
vt 0.3007 0.7299 0.0000
vt 0.0005 0.0045 0.0000
vt 0.0677 0.0045 0.0000
vt 0.0677 0.1318 0.0000
vt 0.0005 0.1318 0.0000
vt 0.0005 0.5915 0.0000
vt 0.0005 0.5336 0.0000
vt 0.0677 0.5336 0.0000
vt 0.0677 0.5915 0.0000
vt 0.4354 0.5646 0.0000
vt 0.4658 0.5607 0.0000
vt 0.4797 0.6890 0.0000
vt 0.4499 0.6939 0.0000
vt 0.0005 0.3011 0.0000
vt 0.0005 0.2762 0.0000
vt 0.0677 0.2762 0.0000
vt 0.0677 0.3011 0.0000
vt 0.8551 0.5800 0.0000
vt 0.8633 0.5796 0.0000
vt 0.8599 0.7874 0.0000
vt 0.8466 0.8005 0.0000
vt 0.0005 0.2296 0.0000
vt 0.0677 0.2296 0.0000
vt 0.9609 0.5793 0.0000
vt 0.9687 0.7842 0.0000
vt 0.0005 0.4919 0.0000
vt 0.0677 0.4919 0.0000
vt 0.0005 0.3488 0.0000
vt 0.0677 0.3488 0.0000
vt 0.8299 0.5804 0.0000
vt 0.8151 0.7850 0.0000
vt 0.3590 0.8674 0.0000
vt 0.3618 0.9185 0.0000
vt 0.3111 0.8886 0.0000
vt 0.3214 0.8485 0.0000
vt 0.0005 0.7727 0.0000
vt 0.0677 0.7727 0.0000
vt 0.4983 0.8746 0.0000
vt 0.5106 0.8958 0.0000
vt 0.5069 0.9800 0.0000
vt 0.4642 0.9842 0.0000
vt 0.4619 0.8806 0.0000
vt 0.8592 0.8911 0.0000
vt 0.8667 0.9349 0.0000
vt 0.8391 0.9566 0.0000
vt 0.8439 0.9109 0.0000
vt 0.9557 0.8881 0.0000
vt 0.9498 0.9239 0.0000
vt 0.7941 0.8974 0.0000
vt 0.7906 0.9611 0.0000
vt 0.7030 0.9832 0.0000
vt 0.7011 0.9592 0.0000
vt 0.8076 0.8886 0.0000
vt 0.0005 0.4217 0.0000
vt 0.0677 0.4217 0.0000
vt 0.5880 0.9885 0.0000
vt 0.5868 0.9577 0.0000
vt 0.0677 0.9995 0.0000
vt 0.0005 0.9995 0.0000
vt 0.0005 0.8799 0.0000
vt 0.0677 0.8799 0.0000
vt 0.0005 0.1842 0.0000
vt 0.0677 0.1842 0.0000
vt 0.1125 0.7061 0.0000
vt 0.1125 0.6575 0.0000
vt 0.9645 0.0443 0.0000
vt 0.9651 0.2003 0.0000
vt 0.9011 0.2110 0.0000
vt 0.9044 0.0430 0.0000
vt 0.1125 0.0045 0.0000
vt 0.1125 0.1318 0.0000
vt 0.1125 0.5915 0.0000
vt 0.1125 0.5336 0.0000
vt 0.8037 0.0433 0.0000
vt 0.7992 0.1737 0.0000
vt 0.7783 0.1741 0.0000
vt 0.7775 0.0451 0.0000
vt 0.1125 0.3011 0.0000
vt 0.1125 0.2762 0.0000
vt 0.3789 0.0408 0.0000
vt 0.3936 0.2492 0.0000
vt 0.3728 0.2511 0.0000
vt 0.3441 0.0440 0.0000
vt 0.1125 0.2296 0.0000
vt 0.2998 0.2547 0.0000
vt 0.2769 0.0538 0.0000
vt 0.1125 0.4919 0.0000
vt 0.1125 0.3488 0.0000
vt 0.4096 0.0375 0.0000
vt 0.4256 0.2422 0.0000
vt 0.8955 0.3413 0.0000
vt 0.9698 0.3224 0.0000
vt 0.9677 0.3715 0.0000
vt 0.8935 0.3944 0.0000
vt 0.1125 0.7727 0.0000
vt 0.7427 0.3702 0.0000
vt 0.7593 0.3597 0.0000
vt 0.7947 0.3607 0.0000
vt 0.7884 0.4622 0.0000
vt 0.7395 0.4582 0.0000
vt 0.3964 0.3538 0.0000
vt 0.4116 0.3710 0.0000
vt 0.4157 0.4292 0.0000
vt 0.4017 0.4085 0.0000
vt 0.3011 0.3564 0.0000
vt 0.3077 0.3925 0.0000
vt 0.4560 0.3500 0.0000
vt 0.5410 0.4195 0.0000
vt 0.5420 0.4528 0.0000
vt 0.4586 0.4306 0.0000
vt 0.4453 0.3437 0.0000
vt 0.1125 0.4217 0.0000
vt 0.6557 0.4615 0.0000
vt 0.6544 0.4255 0.0000
vt 0.1125 0.8799 0.0000
vt 0.1125 0.9995 0.0000
vt 0.1125 0.1842 0.0000
vt 0.2347 0.0045 0.0000
vt 0.2347 0.1037 0.0000
vt 0.1842 0.1037 0.0000
vt 0.1842 0.0045 0.0000
vt 0.2347 0.2204 0.0000
vt 0.2347 0.3316 0.0000
vt 0.1842 0.3316 0.0000
vt 0.1842 0.2204 0.0000
vt 0.2347 0.4103 0.0000
vt 0.1842 0.4103 0.0000
vt 0.2347 0.4932 0.0000
vt 0.1842 0.4932 0.0000
vt 0.2347 0.5711 0.0000
vt 0.1842 0.5711 0.0000
vt 0.5306 0.8638 0.0000
vt 0.7860 0.8852 0.0000
vt 0.7407 0.3425 0.0000
vt 0.4606 0.3320 0.0000
vt 0.5097 0.5571 0.0000
vt 0.5074 0.6844 0.0000
vt 0.7941 0.7796 0.0000
vt 0.6956 0.9478 0.0000
vt 0.5845 0.9375 0.0000
vt 0.7619 0.1651 0.0000
vt 0.4303 0.0353 0.0000
vt 0.4522 0.2340 0.0000
vt 0.5403 0.4012 0.0000
vt 0.6501 0.4100 0.0000
vt 0.1457 0.2204 0.0000
vt 0.1457 0.1037 0.0000
vt 0.1457 0.3316 0.0000
vt 0.1457 0.4103 0.0000
vt 0.1457 0.4932 0.0000
vt 0.1842 0.6986 0.0000
vt 0.1457 0.6986 0.0000
vt 0.1457 0.5711 0.0000
vt 0.2347 0.6986 0.0000
vt 0.8080 0.5795 0.0000
vt 0.7642 0.0459 0.0000
vt 0.1457 0.0045 0.0000
# 164 texture coords

o bloc
g bloc
usemtl wire_088199225
s 1
f 1/1/1 2/2/2 3/3/3 4/4/4 
s 2
f 5/5/5 6/6/6 7/7/7 8/8/8 
s 1
f 9/9/9 10/10/10 11/11/11 12/12/12 
s 4
f 13/13/13 14/14/14 15/15/15 16/16/16 
s 2
f 17/17/6 18/18/17 19/19/18 20/20/19 
s 1
f 2/2/2 13/13/13 16/16/16 3/3/3 
s 2
f 6/6/6 17/17/6 20/20/19 7/7/7 
s 1
f 21/21/20 22/22/21 23/23/22 24/24/23 
s 2
f 25/25/6 26/26/24 27/27/25 28/28/6 
s 4
f 22/22/21 29/29/26 30/30/27 23/23/22 
s 2
f 26/26/24 9/31/9 12/32/12 27/27/25 
s 4
f 14/14/14 31/33/28 32/34/29 15/15/15 
f 33/35/30 21/21/20 24/24/23 34/36/31 
s 2
f 35/37/32 25/25/6 28/28/6 36/38/33 
f 37/39/34 2/40/2 1/41/1 38/42/35 
s 4
f 38/43/35 1/1/1 4/4/4 39/44/36 
s 2
f 40/45/37 41/46/38 14/47/14 13/48/13 42/49/6 
f 42/49/6 13/48/13 2/40/2 37/39/34 
f 43/50/39 22/51/21 21/52/20 44/53/6 
f 45/54/40 29/55/26 22/51/21 43/50/39 
f 46/56/41 33/57/30 47/58/42 48/59/43 
f 44/53/6 21/52/20 33/57/30 46/56/41 49/60/44 
s 4
f 31/33/28 47/61/42 50/62/45 32/34/29 
s 2
f 31/63/28 14/47/14 41/46/38 51/64/46 
f 47/58/42 31/63/28 51/64/46 48/59/43 
s 4
f 47/61/42 33/35/30 34/36/31 50/62/45 
f 52/65/47 5/66/5 8/67/8 53/68/48 
s 1
f 30/30/27 29/29/26 45/69/40 54/70/49 
f 55/71/50 4/4/4 3/3/3 56/72/51 
s 2
f 57/73/52 58/74/53 59/75/54 60/76/55 
s 8
f 61/77/56 62/78/57 11/11/11 10/10/10 
s 4
f 63/79/58 16/16/16 15/15/15 64/80/59 
s 2
f 65/81/60 66/82/61 67/83/62 68/84/63 
s 1
f 56/72/51 3/3/3 16/16/16 63/79/58 
s 2
f 60/76/55 59/75/54 66/82/61 65/81/60 
s 1
f 69/85/64 24/24/23 23/23/22 70/86/65 
s 2
f 71/87/66 72/88/67 73/89/68 74/90/69 
s 4
f 70/86/65 23/23/22 30/30/27 75/91/70 
s 2
f 74/90/69 73/89/68 62/92/57 61/93/56 
s 4
f 64/80/59 15/15/15 32/34/29 76/94/71 
f 77/95/72 34/36/31 24/24/23 69/85/64 
s 2
f 78/96/73 79/97/74 72/88/67 71/87/66 
f 80/98/75 81/99/76 55/100/50 56/101/51 
s 4
f 81/102/76 39/44/36 4/4/4 55/71/50 
s 2
f 82/103/77 83/104/78 84/105/79 63/106/58 64/107/59 
f 84/105/79 80/98/75 56/101/51 63/106/58 
f 85/108/80 86/109/67 69/110/64 70/111/65 
f 87/112/81 85/108/80 70/111/65 75/113/70 
f 88/114/82 89/115/83 90/116/84 77/117/72 
f 86/109/67 91/118/85 88/114/82 77/117/72 69/110/64 
s 4
f 76/94/71 32/34/29 50/62/45 90/119/84 
s 2
f 76/120/71 92/121/86 82/103/77 64/107/59 
f 90/116/84 89/115/83 92/121/86 76/120/71 
s 4
f 90/119/84 50/62/45 34/36/31 77/95/72 
f 52/65/47 53/68/48 58/122/53 57/123/52 
s 8
f 30/30/27 54/70/49 87/124/81 75/91/70 
s 1
f 93/125/87 94/126/88 95/127/89 96/128/90 
s 4
f 97/129/91 98/130/92 99/131/93 100/132/94 
s 1
f 98/130/92 101/133/95 102/134/96 99/131/93 
s 2
f 101/133/95 103/135/97 104/136/98 102/134/96 
s 1
f 103/135/97 105/137/99 106/138/100 104/136/98 
s 8
f 41/46/38 40/45/37 107/139/101 
f 46/56/41 108/140/102 49/60/44 
f 97/141/91 83/104/78 82/103/77 
s 4
f 103/142/97 88/114/82 91/118/85 
s 1
f 18/18/17 109/143/103 110/144/104 19/19/18 
s 4
f 49/60/44 108/140/102 111/145/105 36/38/33 
s 8
f 48/59/43 112/146/106 108/140/102 46/56/41 
s 4
f 41/46/38 107/139/101 113/147/107 51/64/46 
f 51/64/46 113/147/107 112/146/106 48/59/43 
s 16
f 83/104/78 97/141/91 94/148/88 67/83/62 
s 8
f 78/96/73 114/149/108 105/150/99 79/97/74 
s 4
f 88/114/82 103/142/97 101/151/95 89/115/83 
s 8
f 92/121/86 98/152/92 97/141/91 82/103/77 
s 16
f 89/115/83 101/151/95 98/152/92 92/121/86 
s 1
f 100/132/94 107/153/101 110/154/104 95/127/89 
s 4
f 99/131/93 113/155/107 107/153/101 100/132/94 
s 1
f 102/134/96 112/156/106 113/155/107 99/131/93 
s 2
f 104/136/98 108/157/102 112/156/106 102/134/96 
s 1
f 115/158/109 116/159/110 111/160/105 106/138/100 
f 11/11/11 54/70/49 45/69/40 12/12/12 
s 2
f 27/27/25 43/50/39 44/53/6 28/28/6 
f 12/32/12 45/54/40 43/50/39 27/27/25 
f 28/28/6 44/53/6 49/60/44 36/38/33 
s 8
f 62/78/57 87/124/81 54/70/49 11/11/11 
s 2
f 72/88/67 86/109/67 85/108/80 73/89/68 
f 73/89/68 85/108/80 87/112/81 62/92/57 
f 79/97/74 91/118/85 86/109/67 72/88/67 
s 1
f 105/137/99 114/161/108 115/158/109 106/138/100 
s 4
f 111/145/105 116/162/110 35/37/32 36/38/33 
s 8
f 105/150/99 103/142/97 91/118/85 79/97/74 
s 1
f 111/160/105 108/157/102 104/136/98 106/138/100 
s 2
f 7/7/7 37/39/34 38/42/35 8/8/8 
f 19/19/18 40/45/37 42/49/6 20/20/19 
f 20/20/19 42/49/6 37/39/34 7/7/7 
s 4
f 8/67/8 38/43/35 39/44/36 53/68/48 
s 2
f 58/74/53 81/99/76 80/98/75 59/75/54 
f 66/82/61 84/105/79 83/104/78 67/83/62 
f 59/75/54 80/98/75 84/105/79 66/82/61 
s 4
f 53/68/48 39/44/36 81/102/76 58/122/53 
s 1
f 94/126/88 97/129/91 100/132/94 95/127/89 
f 110/144/104 107/139/101 40/45/37 19/19/18 
s 16
f 94/148/88 93/163/87 68/84/63 67/83/62 
s 1
f 110/154/104 109/164/103 96/128/90 95/127/89 
# 100 polygons - 4 triangles

#
# object porte
#

v  -156.7722 259.6550 31.1235
v  -78.9396 293.5229 19.7102
v  -78.9396 298.5838 4.5334
v  -156.7722 259.6550 9.0086
v  -156.7722 -3.7748 31.1235
v  -78.9396 -3.7748 31.1235
v  -78.9396 228.2729 31.1235
v  -156.7722 217.2575 31.1235
v  78.4037 -3.7748 31.1235
v  78.4037 -3.7748 9.0086
v  78.4037 217.2575 9.0086
v  78.4037 217.2575 31.1235
v  78.4037 -3.7748 -5.2557
v  12.4982 -3.7748 -5.2557
v  12.4982 237.6688 -5.2557
v  78.4037 217.2575 -5.2557
v  -156.7722 -3.7748 -5.2557
v  -156.7722 -3.7748 9.0086
v  -156.7722 217.2575 9.0086
v  -156.7722 217.2575 -5.2557
v  12.4982 272.5186 28.1258
v  12.4982 289.2223 12.0981
v  12.4982 -3.7748 31.1235
v  12.4982 238.4621 31.1235
v  -78.9396 -3.7748 -5.2557
v  -78.9396 246.4230 -5.2557
v  78.4037 259.6550 31.1235
v  78.4037 259.6550 9.0086
v  78.4037 259.6550 -5.2557
v  12.4982 283.3572 -0.1734
v  -156.7722 259.6550 -5.2557
v  -78.9396 293.5229 -5.2557
# 32 vertices

vn -0.6186 0.4389 0.6516
vn -0.0582 0.7200 0.6915
vn -0.1663 0.9822 -0.0875
vn -0.8507 0.5257 -0.0000
vn -0.7071 -0.0000 0.7071
vn 0.0000 0.0000 1.0000
vn -0.0111 0.0873 0.9961
vn -0.7071 0.0000 0.7071
vn 0.7071 0.0000 0.7071
vn 1.0000 0.0000 -0.0000
vn 0.7071 0.0000 -0.7071
vn 0.0000 0.0000 -1.0000
vn 0.0127 0.0589 -0.9982
vn -0.7071 -0.0000 -0.7071
vn -1.0000 -0.0000 -0.0000
vn -1.0000 0.0000 -0.0000
vn -0.7071 0.0000 -0.7071
vn 0.0227 0.4082 0.9126
vn 0.2356 0.9529 0.1910
vn 0.0058 0.0498 0.9987
vn 0.6106 0.5130 0.6033
vn 0.8394 0.5434 -0.0000
vn 0.6310 0.4608 -0.6241
vn 0.1397 0.6011 -0.7869
vn -0.6678 0.4377 -0.6021
vn -0.0717 0.5692 -0.8190
# 26 vertex normals

vt 0.1135 0.4848 0.0000
vt 0.1135 0.3869 0.0000
vt 0.1310 0.3869 0.0000
vt 0.1310 0.4848 0.0000
vt 0.4743 0.0246 0.0000
vt 0.5591 0.0246 0.0000
vt 0.5591 0.2975 0.0000
vt 0.4743 0.2846 0.0000
vt 0.1135 0.0045 0.0000
vt 0.1310 0.0045 0.0000
vt 0.1310 0.1591 0.0000
vt 0.1135 0.1591 0.0000
vt 0.5429 0.5413 0.0000
vt 0.6094 0.5413 0.0000
vt 0.6094 0.8229 0.0000
vt 0.5429 0.7991 0.0000
vt 0.1438 0.8067 0.0000
vt 0.1310 0.8067 0.0000
vt 0.1310 0.6080 0.0000
vt 0.1438 0.6080 0.0000
vt 0.1135 0.2938 0.0000
vt 0.1310 0.2938 0.0000
vt 0.6587 0.0246 0.0000
vt 0.6587 0.3095 0.0000
vt 0.7017 0.5413 0.0000
vt 0.7802 0.5413 0.0000
vt 0.7802 0.7991 0.0000
vt 0.7017 0.8331 0.0000
vt 0.1135 0.2202 0.0000
vt 0.1310 0.2202 0.0000
vt 0.7305 0.0246 0.0000
vt 0.7305 0.2846 0.0000
vt 0.5591 0.3743 0.0000
vt 0.4743 0.3344 0.0000
vt 0.1438 0.1591 0.0000
vt 0.1438 0.2202 0.0000
vt 0.6094 0.8762 0.0000
vt 0.5429 0.8486 0.0000
vt 0.1135 0.6080 0.0000
vt 0.6587 0.3496 0.0000
vt 0.7802 0.8486 0.0000
vt 0.7017 0.8881 0.0000
vt 0.7305 0.3344 0.0000
vt 0.1438 0.3869 0.0000
vt 0.1438 0.4848 0.0000
vt 0.1438 0.0045 0.0000
vt 0.1135 0.8067 0.0000
vt 0.1438 0.2938 0.0000
# 48 texture coords

o porte
g porte
usemtl wire_228214153
s 1
f 117/165/111 118/166/112 119/167/113 120/168/114 
s 2
f 121/169/115 122/170/116 123/171/117 124/172/118 
s 4
f 125/173/119 126/174/120 127/175/120 128/176/119 
s 2
f 129/177/121 130/178/122 131/179/123 132/180/121 
s 4
f 133/181/124 134/182/125 135/183/126 136/184/127 
s 1
f 118/166/112 137/185/128 138/186/129 119/167/113 
s 2
f 122/170/116 139/187/116 140/188/130 123/171/117 
f 141/189/122 133/190/124 136/191/127 142/192/122 
f 130/178/122 141/189/122 142/192/122 131/179/123 
s 1
f 137/185/128 143/193/131 144/194/132 138/186/129 
s 2
f 139/187/116 125/195/119 128/196/119 140/188/130 
f 123/171/117 118/197/112 117/198/111 124/172/118 
s 4
f 132/199/121 145/200/133 144/194/132 127/175/120 
s 2
f 131/179/123 146/201/134 145/202/133 132/180/121 
s 4
f 124/203/118 117/165/111 120/168/114 135/183/126 
s 2
f 140/188/130 137/204/128 118/197/112 123/171/117 
f 136/191/127 147/205/135 148/206/136 142/192/122 
f 142/192/122 148/206/136 146/201/134 131/179/123 
f 128/196/119 143/207/131 137/204/128 140/188/130 
s 1
f 119/167/113 148/208/136 147/209/135 120/168/114 
s 4
f 126/174/120 129/210/121 132/199/121 127/175/120 
f 134/182/125 121/211/115 124/203/118 135/183/126 
s 1
f 138/186/129 146/212/134 148/208/136 119/167/113 
f 144/194/132 145/200/133 146/212/134 138/186/129 
s 4
f 144/194/132 143/193/131 128/176/119 127/175/120 
f 120/168/114 147/209/135 136/184/127 135/183/126 
# 26 polygons

